<svg width="71" height="19" viewBox="0 0 71 19" fill="none" xmlns="http://www.w3.org/2000/svg">
<path d="M15.0322 5.6631L12.332 8.3624L9.3369 5.3672L2.667 12.0372L0 9.3702L6.6699 2.7002L6.669 2.6993L9.3692 0L15.0322 5.6631Z" fill="white"/>
<path d="M18.7388 9.3691L9.36962 18.7383L3.90771 13.2763L9.36962 7.8144L12.4165 10.8613L16.3237 6.9541L18.7388 9.3691Z" fill="white"/>
<path d="M30.8313 15.3687V3.46875H37.8863V5.25375H32.8203V15.3687H30.8313ZM39.6633 15.3687V3.46875H43.5053C44.344 3.46875 45.0807 3.62175 45.7153 3.92775C46.3613 4.23375 46.8543 4.66445 47.1943 5.21975C47.5457 5.77505 47.7213 6.42675 47.7213 7.17475C47.7213 7.91145 47.5457 8.56305 47.1943 9.12975C46.8543 9.68505 46.3613 10.1157 45.7153 10.4217C45.0807 10.7164 44.344 10.8638 43.5053 10.8638H40.6493V9.12975H43.4713C43.9473 9.12975 44.3497 9.05605 44.6783 8.90875C45.0183 8.75005 45.2733 8.52345 45.4433 8.22875C45.6247 7.93405 45.7153 7.58275 45.7153 7.17475C45.7153 6.55145 45.517 6.06975 45.1203 5.72975C44.735 5.37845 44.1853 5.20275 43.4713 5.20275H41.6353V9.84375L41.6523 10.0647V15.3687H39.6633ZM47.971 15.3687L51.745 3.46875H54.652L58.426 15.3687H56.369L53.241 5.13475H53.105L49.994 15.3687H47.971ZM50.147 12.3937V10.6768H56.148V12.3937H50.147ZM59.1147 18.0548V13.5837H59.4717C59.9477 13.5837 60.299 13.4137 60.5257 13.0737C60.7637 12.7224 60.9393 12.1104 61.0527 11.2377C61.166 10.3537 61.268 8.97105 61.3587 7.08975L61.5117 3.46875H69.2807V14.7908H67.2747V5.25375H62.5997L63.3817 4.36975L63.2117 8.12675C63.155 9.14675 63.0813 10.025 62.9907 10.7617C62.9113 11.487 62.798 12.1104 62.6507 12.6318C62.5147 13.1531 62.3447 13.578 62.1407 13.9067L61.4097 13.5837H70.8957V18.0548H68.9747V15.3687H61.0357V18.0548H59.1147Z" fill="white"/>
</svg>
