<svg xmlns="http://www.w3.org/2000/svg" viewBox="0 0 960 1600"><g fill="none" stroke="#84919a" stroke-width="1.1" stroke-linecap="round" stroke-linejoin="round"><path d="M800.0,825.2 Q816.0,818.0 824.0,819.8 Q832.0,821.6 838.1,826.8 Q844.1,832.0 846.1,835.0 Q848.0,838.1 849.9,843.0 Q851.8,848.0 852.4,856.0 Q852.9,864.0 850.5,872.0 Q848.2,880.0 848.1,880.1 Q848.0,880.2 840.0,885.4 Q832.0,890.7 824.0,890.6 Q816.0,890.5 808.0,886.3 Q800.0,882.2 798.9,881.1 Q797.8,880.0 793.4,872.0 Q788.9,864.0 788.2,856.0 Q787.5,848.0 790.7,840.0 Q793.9,832.0 797.0,828.6 L800.0,825.2"/><path d="M784.0,734.6 Q800.0,729.7 808.0,728.6 Q816.0,727.5 824.0,727.7 Q832.0,728.0 840.0,729.7 Q848.0,731.4 853.7,733.7 Q859.4,736.0 861.7,737.0 Q864.0,738.1 872.0,743.5 Q880.0,748.9 881.8,750.4 Q883.5,752.0 889.8,758.4 Q896.0,764.8 897.3,766.4 Q898.6,768.0 904.1,776.0 Q909.6,784.0 910.8,786.1 Q912.0,788.1 915.0,794.1 Q918.0,800.0 921.4,808.0 Q924.9,816.0 926.4,820.4 Q928.0,824.7 929.2,828.4 Q930.4,832.0 932.5,840.0 Q934.5,848.0 936.2,856.0 Q937.9,864.0 939.1,872.0 Q940.3,880.0 941.0,888.0 Q941.7,896.0 941.9,904.0 Q942.1,912.0 941.6,920.0 Q941.1,928.0 939.8,936.0 Q938.4,944.0 935.7,952.0 Q933.0,960.0 930.5,964.5 Q928.0,968.9 925.0,972.5 Q922.0,976.0 917.0,980.0 Q912.0,983.9 904.0,987.2 Q896.0,990.6 892.0,991.3 Q887.9,992.0 884.0,992.6 Q880.0,993.1 872.0,993.2 Q864.0,993.3 857.4,992.6 Q850.7,992.0 849.4,991.9 Q848.0,991.7 840.0,990.2 Q832.0,988.7 824.0,986.5 Q816.0,984.4 808.0,981.6 Q800.0,978.9 796.7,977.4 Q793.3,976.0 788.7,973.9 Q784.0,971.7 776.0,967.3 Q768.0,962.9 765.8,961.4 Q763.6,960.0 757.8,955.7 Q752.0,951.4 747.8,947.7 Q743.5,944.0 739.8,940.2 Q736.0,936.3 732.5,932.2 Q729.1,928.0 724.5,921.2 Q720.0,914.4 719.3,913.2 Q718.6,912.0 715.2,904.0 Q711.7,896.0 709.5,888.0 Q707.2,880.0 706.2,872.0 Q705.1,864.0 705.1,856.0 Q705.1,848.0 706.2,840.0 Q707.3,832.0 709.4,824.0 Q711.5,816.0 714.5,808.0 Q717.6,800.0 718.8,797.6 Q720.0,795.2 723.3,789.6 Q726.5,784.0 731.3,777.4 Q736.0,770.7 737.2,769.4 Q738.3,768.0 745.2,761.2 Q752.0,754.4 753.5,753.2 Q754.9,752.0 761.5,747.4 Q768.0,742.9 774.5,739.4 Q781.1,736.0 782.5,735.3 L784.0,734.6"/><path d="M960.0,1139.4 Q958.4,1136.0 953.8,1128.0 Q949.2,1120.0 946.6,1116.6 Q944.0,1113.1 940.1,1108.6 Q936.1,1104.0 932.1,1100.3 Q928.0,1096.5 922.6,1092.3 Q917.1,1088.0 914.6,1086.3 Q912.0,1084.7 904.0,1080.0 Q896.0,1075.3 892.9,1073.6 Q889.8,1072.0 884.9,1069.7 Q880.0,1067.3 872.0,1063.8 Q864.0,1060.2 859.1,1058.1 Q854.2,1056.0 851.1,1054.7 Q848.0,1053.5 840.0,1050.2 Q832.0,1046.9 824.0,1043.6 Q816.0,1040.3 815.6,1040.2 Q815.3,1040.0 807.6,1036.7 Q800.0,1033.3 792.0,1029.7 Q784.0,1026.1 781.9,1025.0 Q779.8,1024.0 773.9,1021.0 Q768.0,1018.0 760.0,1013.7 Q752.0,1009.3 750.9,1008.6 Q749.9,1008.0 742.9,1003.5 Q736.0,999.1 731.0,995.5 Q726.1,992.0 723.0,989.6 Q720.0,987.3 713.6,981.6 Q707.1,976.0 705.6,974.5 Q704.0,972.9 698.2,966.5 Q692.4,960.0 690.2,957.1 Q688.0,954.3 684.5,949.1 Q681.0,944.0 676.5,936.0 Q672.1,928.0 672.1,927.8 Q672.0,927.7 669.0,919.8 Q665.9,912.0 663.8,904.0 Q661.6,896.0 660.2,888.0 Q658.9,880.0 658.4,872.0 Q657.9,864.0 658.1,856.0 Q658.4,848.0 659.3,840.0 Q660.3,832.0 662.0,824.0 Q663.6,816.0 666.0,808.0 Q668.3,800.0 670.1,795.1 Q672.0,790.1 673.2,787.1 Q674.5,784.0 678.5,776.0 Q682.4,768.0 685.2,763.2 Q688.0,758.4 690.1,755.2 Q692.1,752.0 698.1,744.0 Q704.0,736.0 704.0,736.0 Q704.0,736.0 711.5,728.0 Q719.0,720.0 719.5,719.5 Q720.0,719.1 728.0,712.4 Q736.0,705.7 737.2,704.9 Q738.5,704.0 745.2,699.6 Q752.0,695.3 759.0,691.6 Q766.0,688.0 767.0,687.5 Q768.0,687.0 776.0,684.1 Q784.0,681.1 792.0,679.1 Q800.0,677.1 808.0,676.1 Q816.0,675.0 824.0,675.0 Q832.0,675.0 840.0,676.0 Q848.0,677.0 856.0,679.1 Q864.0,681.3 872.0,684.6 Q880.0,688.0 880.0,688.0 Q880.0,688.0 888.0,693.0 Q896.0,698.0 899.8,701.0 Q903.5,704.0 907.8,707.7 Q912.0,711.4 916.0,715.7 Q920.0,720.0 924.0,724.7 Q928.0,729.5 930.4,732.7 Q932.7,736.0 938.0,744.0 Q943.2,752.0 943.6,752.7 Q944.0,753.4 947.8,760.7 Q951.7,768.0 955.5,776.0 Q959.3,784.0 959.7,784.8 L960.0,785.6"/><path d="M960.0,1316.8 Q958.9,1312.0 957.1,1304.0 Q955.2,1296.0 953.3,1288.0 Q951.4,1280.0 949.4,1272.0 Q947.3,1264.0 945.7,1258.1 Q944.0,1252.1 943.4,1250.1 Q942.9,1248.0 940.4,1240.0 Q938.0,1232.0 935.2,1224.0 Q932.4,1216.0 930.2,1210.6 Q928.0,1205.1 926.9,1202.6 Q925.9,1200.0 922.0,1192.0 Q918.1,1184.0 915.1,1178.7 Q912.0,1173.3 910.4,1170.7 Q908.8,1168.0 903.0,1160.0 Q897.2,1152.0 896.6,1151.3 Q896.0,1150.6 889.4,1143.3 Q882.8,1136.0 881.4,1134.7 Q880.0,1133.3 872.3,1126.7 Q864.7,1120.0 864.3,1119.7 Q864.0,1119.5 856.0,1113.7 Q848.0,1107.8 845.1,1105.9 Q842.3,1104.0 837.1,1100.8 Q832.0,1097.6 824.0,1093.0 Q816.0,1088.4 815.7,1088.2 Q815.4,1088.0 807.7,1083.8 Q800.0,1079.6 792.8,1075.8 Q785.6,1072.0 784.8,1071.6 Q784.0,1071.2 776.0,1067.0 Q768.0,1062.7 761.7,1059.4 Q755.4,1056.0 753.7,1055.1 Q752.0,1054.1 744.0,1049.6 Q736.0,1045.0 731.8,1042.5 Q727.6,1040.0 723.8,1037.6 Q720.0,1035.2 712.0,1029.9 Q704.0,1024.5 703.6,1024.3 Q703.3,1024.0 695.6,1018.0 Q688.0,1012.1 685.6,1010.0 Q683.2,1008.0 677.6,1002.7 Q672.0,997.4 669.4,994.7 Q666.8,992.0 661.4,985.6 Q656.0,979.2 654.7,977.6 Q653.5,976.0 648.2,968.0 Q643.0,960.0 641.5,957.2 Q640.0,954.4 637.4,949.2 Q634.9,944.0 631.7,936.0 Q628.6,928.0 626.4,920.0 Q624.1,912.0 624.0,911.8 Q624.0,911.7 622.6,903.8 Q621.1,896.0 620.3,888.0 Q619.5,880.0 619.3,872.0 Q619.1,864.0 619.5,856.0 Q619.8,848.0 620.7,840.0 Q621.6,832.0 622.8,825.5 Q624.0,818.9 624.3,817.5 Q624.5,816.0 626.6,808.0 Q628.6,800.0 631.2,792.0 Q633.8,784.0 636.9,776.0 Q640.0,768.0 640.0,768.0 Q640.0,768.0 643.9,760.0 Q647.7,752.0 651.9,744.5 Q656.0,737.1 656.3,736.5 Q656.6,736.0 662.0,728.0 Q667.4,720.0 669.7,716.9 Q672.0,713.8 676.0,708.9 Q680.1,704.0 684.0,699.6 Q688.0,695.2 691.6,691.6 Q695.2,688.0 699.6,684.0 Q704.0,679.9 708.9,676.0 Q713.8,672.0 716.9,669.6 Q720.0,667.3 728.0,662.0 Q736.0,656.8 736.7,656.4 Q737.5,656.0 744.7,652.2 Q752.0,648.4 760.0,645.0 Q768.0,641.6 770.5,640.8 Q772.9,640.0 778.5,638.3 Q784.0,636.5 792.0,634.8 Q800.0,633.0 808.0,632.0 Q816.0,631.1 824.0,630.9 Q832.0,630.7 840.0,631.4 Q848.0,632.0 856.0,633.6 Q864.0,635.1 871.8,637.5 Q879.6,640.0 879.8,640.1 Q880.0,640.1 888.0,643.8 Q896.0,647.5 903.0,651.8 Q910.0,656.0 911.0,656.7 Q912.0,657.4 920.0,663.9 Q928.0,670.4 928.8,671.2 Q929.7,672.0 936.8,679.6 Q944.0,687.1 944.3,687.6 Q944.7,688.0 950.7,696.0 Q956.7,704.0 958.4,706.4 L960.0,708.8"/><path d="M960.0,1464.8 Q956.7,1456.0 954.1,1448.0 Q951.5,1440.0 949.2,1432.0 Q946.9,1424.0 945.4,1418.6 Q944.0,1413.3 943.4,1410.6 Q942.8,1408.0 941.0,1400.0 Q939.1,1392.0 937.4,1384.0 Q935.6,1376.0 933.9,1368.0 Q932.2,1360.0 930.4,1352.0 Q928.7,1344.0 928.3,1342.5 Q928.0,1341.0 926.6,1334.5 Q925.2,1328.0 923.3,1320.0 Q921.5,1312.0 919.4,1304.0 Q917.4,1296.0 915.1,1288.0 Q912.9,1280.0 912.4,1278.6 Q912.0,1277.2 909.9,1270.6 Q907.9,1264.0 905.0,1256.0 Q902.1,1248.0 899.1,1240.7 Q896.0,1233.3 895.7,1232.7 Q895.4,1232.0 891.6,1224.0 Q887.7,1216.0 883.8,1209.3 Q880.0,1202.6 879.2,1201.3 Q878.4,1200.0 872.9,1192.0 Q867.4,1184.0 865.7,1181.9 Q864.0,1179.7 859.0,1173.9 Q854.0,1168.0 851.0,1164.9 Q848.0,1161.7 842.9,1156.9 Q837.9,1152.0 834.9,1149.5 Q832.0,1146.9 825.2,1141.5 Q818.4,1136.0 817.2,1135.1 Q816.0,1134.3 808.0,1128.7 Q800.0,1123.1 797.6,1121.5 Q795.3,1120.0 789.6,1116.5 Q784.0,1112.9 776.5,1108.5 Q769.1,1104.0 768.5,1103.7 Q768.0,1103.4 760.0,1098.8 Q752.0,1094.2 746.6,1091.1 Q741.2,1088.0 738.6,1086.5 Q736.0,1085.1 728.0,1080.4 Q720.0,1075.8 716.8,1073.9 Q713.5,1072.0 708.8,1069.1 Q704.0,1066.2 696.0,1061.1 Q688.0,1056.0 688.0,1056.0 Q688.0,1056.0 680.0,1050.3 Q672.0,1044.6 669.0,1042.3 Q665.9,1040.0 661.0,1035.9 Q656.0,1031.8 651.6,1027.9 Q647.2,1024.0 643.6,1020.4 Q640.0,1016.8 635.9,1012.4 Q631.8,1008.0 627.9,1003.2 Q624.0,998.4 621.6,995.2 Q619.2,992.0 614.2,984.0 Q609.1,976.0 608.6,975.0 Q608.0,973.9 604.6,967.0 Q601.2,960.0 598.1,952.0 Q595.0,944.0 593.5,939.0 Q592.0,934.0 591.1,931.0 Q590.3,928.0 588.7,920.0 Q587.0,912.0 586.0,904.0 Q585.0,896.0 584.4,888.0 Q583.9,880.0 583.9,872.0 Q583.9,864.0 584.4,856.0 Q584.8,848.0 585.7,840.0 Q586.6,832.0 588.0,824.0 Q589.3,816.0 590.7,809.9 Q592.0,803.8 592.4,801.9 Q592.9,800.0 595.1,792.0 Q597.3,784.0 600.0,776.0 Q602.7,768.0 605.4,761.2 Q608.0,754.5 608.5,753.2 Q609.0,752.0 612.7,744.0 Q616.5,736.0 620.2,728.9 Q624.0,721.7 624.5,720.9 Q625.0,720.0 629.9,712.0 Q634.9,704.0 637.4,700.3 Q640.0,696.5 643.1,692.3 Q646.3,688.0 651.1,682.0 Q656.0,675.9 657.7,674.0 Q659.5,672.0 665.7,665.4 Q672.0,658.8 673.4,657.4 Q674.9,656.0 681.4,650.1 Q688.0,644.3 690.7,642.1 Q693.3,640.0 698.7,636.0 Q704.0,631.9 710.0,628.0 Q716.0,624.0 718.0,622.7 Q720.0,621.5 728.0,617.1 Q736.0,612.7 741.2,610.4 Q746.3,608.0 749.2,606.7 Q752.0,605.5 760.0,602.6 Q768.0,599.6 776.0,597.4 Q784.0,595.2 792.0,593.6 Q800.0,592.0 800.0,592.0 Q800.0,592.0 808.0,591.1 Q816.0,590.2 824.0,589.9 Q832.0,589.7 840.0,590.1 Q848.0,590.6 852.7,591.3 Q857.5,592.0 860.7,592.5 Q864.0,593.0 872.0,595.0 Q880.0,597.0 888.0,599.9 Q896.0,602.9 901.3,605.4 Q906.6,608.0 909.3,609.4 Q912.0,610.7 920.0,615.9 Q928.0,621.0 929.9,622.5 Q931.8,624.0 937.9,629.1 Q944.0,634.1 947.0,637.1 Q949.9,640.0 955.0,645.4 L960.0,650.8"/><path d="M960.0,17.5 Q944.0,22.6 936.0,24.8 Q928.0,27.1 920.0,28.9 Q912.0,30.8 908.6,31.4 Q905.1,32.0 900.6,32.8 Q896.0,33.7 888.0,34.7 Q880.0,35.7 872.0,36.1 Q864.0,36.5 856.0,36.3 Q848.0,36.1 840.0,35.1 Q832.0,34.0 827.8,33.0 Q823.7,32.0 819.8,31.0 Q816.0,29.9 808.0,26.5 Q800.0,23.1 794.5,19.5 Q788.9,16.0 786.5,14.2 Q784.0,12.4 777.8,6.2 L771.5,0.0"/><path d="M960.0,1572.5 Q955.7,1568.0 949.9,1560.4 Q944.0,1552.9 943.8,1552.4 Q943.5,1552.0 939.7,1544.0 Q935.9,1536.0 932.9,1528.0 Q929.9,1520.0 929.0,1517.1 Q928.0,1514.1 926.6,1509.1 Q925.3,1504.0 923.4,1496.0 Q921.5,1488.0 919.8,1480.0 Q918.1,1472.0 916.6,1464.0 Q915.1,1456.0 913.6,1448.0 Q912.2,1440.0 912.1,1439.4 Q912.0,1438.8 910.8,1431.4 Q909.6,1424.0 908.3,1416.0 Q907.0,1408.0 905.6,1400.0 Q904.2,1392.0 902.8,1384.0 Q901.4,1376.0 899.9,1368.0 Q898.3,1360.0 897.2,1354.5 Q896.0,1348.9 895.5,1346.5 Q895.0,1344.0 893.2,1336.0 Q891.4,1328.0 889.3,1320.0 Q887.3,1312.0 884.9,1304.0 Q882.6,1296.0 881.3,1292.2 Q880.0,1288.3 878.6,1284.2 Q877.2,1280.0 874.1,1272.0 Q871.0,1264.0 867.5,1256.3 Q864.0,1248.6 863.9,1248.3 Q863.7,1248.0 859.5,1240.0 Q855.2,1232.0 851.6,1226.2 Q848.0,1220.3 846.6,1218.2 Q845.1,1216.0 839.1,1208.0 Q833.1,1200.0 832.6,1199.3 Q832.0,1198.7 825.4,1191.3 Q818.8,1184.0 817.4,1182.6 Q816.0,1181.2 808.8,1174.6 Q801.6,1168.0 800.8,1167.3 Q800.0,1166.6 792.0,1160.3 Q784.0,1154.0 782.7,1153.0 Q781.3,1152.0 774.7,1147.3 Q768.0,1142.7 762.9,1139.3 Q757.8,1136.0 754.9,1134.2 Q752.0,1132.3 744.0,1127.4 Q736.0,1122.5 733.9,1121.3 Q731.7,1120.0 725.9,1116.5 Q720.0,1113.1 712.2,1108.5 Q704.4,1104.0 704.2,1103.9 Q704.0,1103.8 696.0,1099.0 Q688.0,1094.3 682.8,1091.1 Q677.6,1088.0 674.8,1086.2 Q672.0,1084.4 664.0,1079.2 Q656.0,1074.0 654.6,1073.0 Q653.1,1072.0 646.6,1067.2 Q640.0,1062.4 635.9,1059.2 Q631.8,1056.0 627.9,1052.7 Q624.0,1049.3 618.9,1044.7 Q613.8,1040.0 610.9,1037.0 Q608.0,1034.1 603.4,1029.0 Q598.8,1024.0 595.4,1019.7 Q592.0,1015.3 589.3,1011.7 Q586.6,1008.0 581.7,1000.0 Q576.8,992.0 576.4,991.3 Q576.0,990.6 572.5,983.3 Q568.9,976.0 565.8,968.0 Q562.7,960.0 561.4,955.5 Q560.0,951.0 559.0,947.5 Q558.0,944.0 556.2,936.0 Q554.5,928.0 553.3,920.0 Q552.1,912.0 551.4,904.0 Q550.6,896.0 550.4,888.0 Q550.1,880.0 550.2,872.0 Q550.4,864.0 550.9,856.0 Q551.4,848.0 552.3,840.0 Q553.1,832.0 554.4,824.0 Q555.6,816.0 557.2,808.0 Q558.8,800.0 559.4,797.4 Q560.0,794.8 561.3,789.4 Q562.6,784.0 565.0,776.0 Q567.3,768.0 570.0,760.0 Q572.7,752.0 574.3,747.6 Q576.0,743.3 577.4,739.6 Q578.9,736.0 582.4,728.0 Q586.0,720.0 589.0,714.0 Q592.0,707.9 593.0,706.0 Q594.1,704.0 598.6,696.0 Q603.2,688.0 605.6,684.2 Q608.0,680.4 610.8,676.2 Q613.6,672.0 618.8,664.9 Q624.0,657.8 624.7,656.9 Q625.4,656.0 632.2,648.0 Q638.9,640.0 639.5,639.4 Q640.0,638.8 647.2,631.4 Q654.5,624.0 655.2,623.3 Q656.0,622.5 664.0,615.5 Q672.0,608.5 672.3,608.3 Q672.7,608.0 680.3,602.2 Q688.0,596.4 691.3,594.2 Q694.7,592.0 699.3,589.0 Q704.0,586.0 712.0,581.5 Q720.0,577.1 721.1,576.5 Q722.2,576.0 729.1,572.7 Q736.0,569.5 744.0,566.3 Q752.0,563.2 757.0,561.6 Q761.9,560.0 765.0,559.0 Q768.0,558.1 776.0,556.1 Q784.0,554.1 792.0,552.7 Q800.0,551.3 808.0,550.5 Q816.0,549.7 824.0,549.5 Q832.0,549.2 840.0,549.6 Q848.0,550.0 856.0,551.0 Q864.0,552.0 872.0,553.7 Q880.0,555.4 887.6,557.7 Q895.2,560.0 895.6,560.1 Q896.0,560.3 904.0,563.5 Q912.0,566.8 920.0,571.1 Q928.0,575.4 928.5,575.7 Q929.0,576.0 936.5,581.1 Q944.0,586.2 947.6,589.1 Q951.1,592.0 955.6,595.8 L960.0,599.7"/><path d="M0.0,717.5 Q0.6,720.0 1.7,728.0 Q2.9,736.0 3.4,744.0 Q3.9,752.0 3.9,760.0 Q3.8,768.0 3.3,776.0 Q2.8,784.0 1.9,792.0 Q0.9,800.0 0.5,802.8 L0.0,805.5"/><path d="M960.0,56.1 Q944.0,62.0 941.0,63.0 Q938.0,64.0 933.0,65.7 Q928.0,67.4 920.0,69.9 Q912.0,72.3 904.0,74.5 Q896.0,76.6 888.3,78.3 Q880.5,80.0 880.3,80.1 Q880.0,80.1 872.0,81.5 Q864.0,82.9 856.0,83.8 Q848.0,84.7 840.0,85.0 Q832.0,85.4 824.0,85.0 Q816.0,84.7 808.0,83.4 Q800.0,82.2 796.0,81.1 Q791.9,80.0 788.0,78.8 Q784.0,77.6 776.0,73.9 Q768.0,70.1 763.5,67.1 Q759.1,64.0 755.5,61.2 Q752.0,58.4 747.1,53.2 Q742.2,48.0 739.1,44.1 Q736.0,40.1 733.5,36.1 Q731.0,32.0 726.9,24.0 Q722.9,16.0 721.4,12.5 Q720.0,8.9 718.5,4.5 L716.9,0.0"/><path d="M895.7,1600.0 Q893.1,1584.0 892.0,1576.0 Q891.0,1568.0 890.0,1560.0 Q889.1,1552.0 888.3,1544.0 Q887.6,1536.0 886.8,1528.0 Q886.1,1520.0 885.4,1512.0 Q884.7,1504.0 884.0,1496.0 Q883.3,1488.0 882.6,1480.0 Q881.9,1472.0 881.1,1464.0 Q880.3,1456.0 880.2,1454.4 Q880.0,1452.8 879.4,1446.4 Q878.7,1440.0 877.9,1432.0 Q877.0,1424.0 876.0,1416.0 Q875.0,1408.0 873.8,1400.0 Q872.6,1392.0 871.3,1384.0 Q870.0,1376.0 868.5,1368.0 Q867.0,1360.0 865.5,1353.3 Q864.0,1346.5 863.7,1345.3 Q863.5,1344.0 861.4,1336.0 Q859.4,1328.0 857.0,1320.0 Q854.7,1312.0 851.9,1304.0 Q849.1,1296.0 848.6,1294.5 Q848.0,1293.1 845.3,1286.5 Q842.7,1280.0 838.9,1272.0 Q835.1,1264.0 833.5,1261.2 Q832.0,1258.3 829.0,1253.2 Q826.1,1248.0 821.0,1240.4 Q816.0,1232.8 815.7,1232.4 Q815.4,1232.0 809.1,1224.0 Q802.8,1216.0 801.4,1214.4 Q800.0,1212.9 793.8,1206.4 Q787.7,1200.0 785.8,1198.2 Q784.0,1196.5 776.9,1190.2 Q769.8,1184.0 768.9,1183.3 Q768.0,1182.5 760.0,1176.4 Q752.0,1170.3 750.4,1169.2 Q748.8,1168.0 742.4,1163.6 Q736.0,1159.3 730.3,1155.6 Q724.7,1152.0 722.3,1150.5 Q720.0,1149.1 712.0,1144.3 Q704.0,1139.4 701.1,1137.7 Q698.1,1136.0 693.1,1133.0 Q688.0,1130.1 680.0,1125.4 Q672.0,1120.8 671.3,1120.4 Q670.6,1120.0 663.3,1115.7 Q656.0,1111.4 649.9,1107.7 Q643.8,1104.0 641.9,1102.8 Q640.0,1101.6 632.0,1096.3 Q624.0,1091.1 621.8,1089.5 Q619.5,1088.0 613.8,1083.8 Q608.0,1079.5 603.2,1075.8 Q598.4,1072.0 595.2,1069.2 Q592.0,1066.5 586.3,1061.2 Q580.6,1056.0 578.3,1053.6 Q576.0,1051.2 571.0,1045.6 Q565.9,1040.0 563.0,1036.2 Q560.0,1032.3 557.0,1028.2 Q553.9,1024.0 549.1,1016.0 Q544.2,1008.0 544.1,1007.8 Q544.0,1007.5 540.2,999.8 Q536.5,992.0 533.4,984.0 Q530.4,976.0 529.2,972.1 Q528.0,968.2 526.8,964.1 Q525.6,960.0 523.8,952.0 Q522.0,944.0 520.7,936.0 Q519.4,928.0 518.5,920.0 Q517.7,912.0 517.2,904.0 Q516.8,896.0 516.7,888.0 Q516.6,880.0 516.8,872.0 Q517.0,864.0 517.6,856.0 Q518.1,848.0 518.9,840.0 Q519.7,832.0 520.8,824.0 Q521.9,816.0 523.3,808.0 Q524.7,800.0 526.4,792.2 Q528.0,784.5 528.0,784.2 Q528.1,784.0 530.1,776.0 Q532.0,768.0 534.3,760.0 Q536.6,752.0 539.2,744.0 Q541.8,736.0 542.9,732.9 Q544.0,729.9 545.8,724.9 Q547.6,720.0 551.0,712.0 Q554.3,704.0 557.1,697.8 Q560.0,691.7 560.9,689.8 Q561.8,688.0 565.9,680.0 Q570.1,672.0 573.1,666.9 Q576.0,661.8 577.8,658.9 Q579.5,656.0 584.8,648.0 Q590.0,640.0 591.0,638.6 Q592.0,637.2 596.9,630.6 Q601.9,624.0 604.9,620.2 Q608.0,616.4 611.6,612.2 Q615.3,608.0 619.6,603.3 Q624.0,598.5 627.3,595.3 Q630.5,592.0 635.3,587.5 Q640.0,583.0 644.0,579.5 Q648.1,576.0 652.0,572.7 Q656.0,569.4 662.3,564.7 Q668.6,560.0 670.3,558.8 Q672.0,557.6 680.0,552.4 Q688.0,547.2 690.8,545.6 Q693.7,544.0 698.8,541.1 Q704.0,538.2 712.0,534.4 Q720.0,530.5 723.1,529.3 Q726.1,528.0 731.1,526.0 Q736.0,523.9 744.0,521.2 Q752.0,518.5 760.0,516.3 Q768.0,514.1 773.2,513.1 Q778.5,512.0 781.2,511.4 Q784.0,510.8 792.0,509.7 Q800.0,508.5 808.0,507.8 Q816.0,507.2 824.0,507.1 Q832.0,506.9 840.0,507.3 Q848.0,507.7 856.0,508.7 Q864.0,509.7 870.0,510.8 Q875.9,512.0 878.0,512.4 Q880.0,512.8 888.0,514.9 Q896.0,517.1 904.0,520.0 Q912.0,522.9 917.5,525.4 Q923.1,528.0 925.5,529.1 Q928.0,530.3 936.0,534.9 Q944.0,539.5 947.2,541.8 Q950.4,544.0 955.2,547.5 L960.0,551.0"/><path d="M0.0,616.0 Q7.2,624.0 11.6,629.9 Q16.0,635.8 17.5,637.9 Q18.9,640.0 23.5,648.0 Q28.0,656.0 30.0,660.6 Q32.0,665.1 33.4,668.6 Q34.8,672.0 37.2,680.0 Q39.7,688.0 41.3,696.0 Q42.8,704.0 43.7,712.0 Q44.6,720.0 44.9,728.0 Q45.2,736.0 45.0,744.0 Q44.7,752.0 44.1,760.0 Q43.4,768.0 42.4,776.0 Q41.4,784.0 40.0,792.0 Q38.6,800.0 37.0,808.0 Q35.3,816.0 33.6,822.7 Q32.0,829.4 31.7,830.7 Q31.4,832.0 29.2,840.0 Q27.0,848.0 24.6,856.0 Q22.1,864.0 19.5,872.0 Q16.8,880.0 16.4,881.1 Q16.0,882.2 13.5,889.1 Q11.0,896.0 7.9,904.0 Q4.7,912.0 2.4,917.6 L0.0,923.2"/><path d="M960.0,97.7 Q944.0,104.6 936.0,107.9 Q928.0,111.1 926.8,111.5 Q925.5,112.0 918.8,114.7 Q912.0,117.3 904.0,120.2 Q896.0,123.1 888.3,125.5 Q880.5,128.0 880.3,128.1 Q880.0,128.2 872.0,130.5 Q864.0,132.9 856.0,134.8 Q848.0,136.8 840.0,138.3 Q832.0,139.8 824.0,140.9 Q816.0,141.9 808.0,142.3 Q800.0,142.8 792.0,142.5 Q784.0,142.2 776.0,141.1 Q768.0,139.9 760.0,137.6 Q752.0,135.2 744.6,131.6 Q737.1,128.0 736.6,127.7 Q736.0,127.4 728.0,121.3 Q720.0,115.1 718.5,113.6 Q717.0,112.0 710.6,104.0 Q704.2,96.0 704.1,95.8 Q704.0,95.7 699.8,87.8 Q695.5,80.0 692.2,72.0 Q688.8,64.0 688.4,62.8 Q688.0,61.6 686.0,54.8 Q684.0,48.0 682.2,40.0 Q680.3,32.0 678.9,24.0 Q677.5,16.0 676.5,8.0 L675.4,0.0"/><path d="M845.2,1600.0 Q846.8,1584.0 847.4,1576.2 Q848.0,1568.3 848.0,1568.2 Q848.0,1568.0 848.5,1560.0 Q849.0,1552.0 849.4,1544.0 Q849.8,1536.0 850.0,1528.0 Q850.2,1520.0 850.3,1512.0 Q850.4,1504.0 850.3,1496.0 Q850.3,1488.0 850.1,1480.0 Q849.9,1472.0 849.5,1464.0 Q849.2,1456.0 848.7,1448.0 Q848.1,1440.0 848.1,1439.2 Q848.0,1438.3 847.4,1431.2 Q846.8,1424.0 845.9,1416.0 Q845.0,1408.0 843.9,1400.0 Q842.8,1392.0 841.5,1384.0 Q840.1,1376.0 838.5,1368.0 Q836.8,1360.0 834.9,1352.0 Q832.9,1344.0 832.5,1342.4 Q832.0,1340.8 830.1,1334.4 Q828.2,1328.0 825.4,1320.0 Q822.6,1312.0 819.3,1304.0 Q816.0,1296.0 816.0,1295.9 Q816.0,1295.9 812.1,1287.9 Q808.2,1280.0 804.1,1272.9 Q800.0,1265.8 799.4,1264.9 Q798.9,1264.0 793.3,1256.0 Q787.8,1248.0 785.9,1245.6 Q784.0,1243.2 779.3,1237.6 Q774.6,1232.0 771.3,1228.5 Q768.0,1225.0 763.4,1220.5 Q758.8,1216.0 755.4,1212.9 Q752.0,1209.8 746.1,1204.9 Q740.2,1200.0 738.1,1198.4 Q736.0,1196.8 728.0,1191.0 Q720.0,1185.2 719.1,1184.6 Q718.3,1184.0 711.1,1179.3 Q704.0,1174.7 698.6,1171.3 Q693.2,1168.0 690.6,1166.4 Q688.0,1164.9 680.0,1160.2 Q672.0,1155.6 668.8,1153.8 Q665.6,1152.0 660.8,1149.3 Q656.0,1146.5 648.0,1142.1 Q640.0,1137.6 638.6,1136.8 Q637.2,1136.0 630.6,1132.2 Q624.0,1128.4 616.9,1124.2 Q609.7,1120.0 608.9,1119.5 Q608.0,1118.9 600.0,1113.8 Q592.0,1108.7 588.5,1106.4 Q584.9,1104.0 580.5,1100.8 Q576.0,1097.5 569.8,1092.8 Q563.6,1088.0 561.8,1086.5 Q560.0,1084.9 552.9,1078.5 Q545.8,1072.0 544.9,1071.0 Q544.0,1070.1 537.6,1063.0 Q531.3,1056.0 529.6,1053.9 Q528.0,1051.7 523.8,1045.9 Q519.5,1040.0 515.8,1033.7 Q512.0,1027.4 511.0,1025.7 Q510.0,1024.0 506.2,1016.0 Q502.5,1008.0 499.5,1000.0 Q496.5,992.0 496.2,991.2 Q496.0,990.4 493.9,983.2 Q491.8,976.0 490.0,968.0 Q488.2,960.0 486.9,952.0 Q485.6,944.0 484.6,936.0 Q483.7,928.0 483.2,920.0 Q482.6,912.0 482.3,904.0 Q482.1,896.0 482.1,888.0 Q482.1,880.0 482.4,872.0 Q482.6,864.0 483.1,856.0 Q483.6,848.0 484.4,840.0 Q485.1,832.0 486.0,824.0 Q487.0,816.0 488.1,808.0 Q489.3,800.0 490.7,792.0 Q492.1,784.0 493.7,776.0 Q495.3,768.0 495.7,766.5 Q496.0,765.0 497.5,758.5 Q499.0,752.0 501.0,744.0 Q503.1,736.0 505.5,728.0 Q507.8,720.0 509.9,713.7 Q512.0,707.4 512.6,705.7 Q513.1,704.0 516.0,696.0 Q519.0,688.0 522.2,680.0 Q525.5,672.0 526.8,669.3 Q528.0,666.5 530.4,661.3 Q532.9,656.0 536.9,648.0 Q541.0,640.0 542.5,637.3 Q544.0,634.6 547.0,629.3 Q550.1,624.0 555.0,616.2 Q560.0,608.3 560.1,608.2 Q560.2,608.0 565.8,600.0 Q571.4,592.0 573.7,589.0 Q576.0,586.0 580.0,581.0 Q584.0,576.0 588.0,571.3 Q592.0,566.7 595.1,563.3 Q598.2,560.0 603.1,554.9 Q608.0,549.8 611.1,546.9 Q614.2,544.0 619.1,539.5 Q624.0,535.0 628.2,531.5 Q632.4,528.0 636.2,524.9 Q640.0,521.9 646.8,516.9 Q653.7,512.0 654.8,511.2 Q656.0,510.3 664.0,505.2 Q672.0,500.1 675.7,498.0 Q679.4,496.0 683.7,493.6 Q688.0,491.1 696.0,487.3 Q704.0,483.4 708.3,481.7 Q712.5,480.0 716.3,478.4 Q720.0,476.9 728.0,474.1 Q736.0,471.3 744.0,469.1 Q752.0,466.9 759.0,465.5 Q765.9,464.0 767.0,463.8 Q768.0,463.5 776.0,462.3 Q784.0,461.0 792.0,460.2 Q800.0,459.4 808.0,459.1 Q816.0,458.8 824.0,459.0 Q832.0,459.2 840.0,459.8 Q848.0,460.5 856.0,461.7 Q864.0,462.8 866.8,463.4 Q869.6,464.0 874.8,465.0 Q880.0,466.1 888.0,468.2 Q896.0,470.4 904.0,473.1 Q912.0,475.9 916.7,478.0 Q921.4,480.0 924.7,481.4 Q928.0,482.8 936.0,487.0 Q944.0,491.2 947.8,493.6 Q951.6,496.0 955.8,498.6 L960.0,501.3"/><path d="M0.0,558.4 Q2.4,560.0 9.2,565.0 Q16.0,570.1 19.9,573.0 Q23.7,576.0 27.9,579.6 Q32.0,583.2 36.8,587.6 Q41.7,592.0 44.8,595.4 Q48.0,598.8 52.1,603.4 Q56.2,608.0 60.1,613.5 Q64.0,619.0 65.7,621.5 Q67.4,624.0 71.6,632.0 Q75.8,640.0 77.9,645.5 Q80.0,650.9 80.9,653.5 Q81.8,656.0 83.9,664.0 Q85.9,672.0 87.1,680.0 Q88.3,688.0 88.8,696.0 Q89.3,704.0 89.3,712.0 Q89.2,720.0 88.7,728.0 Q88.1,736.0 87.2,744.0 Q86.3,752.0 85.0,760.0 Q83.7,768.0 82.1,776.0 Q80.5,784.0 80.3,785.2 Q80.0,786.3 78.5,793.2 Q77.0,800.0 74.9,808.0 Q72.9,816.0 70.7,824.0 Q68.5,832.0 66.2,839.3 Q64.0,846.7 63.8,847.3 Q63.6,848.0 61.1,856.0 Q58.5,864.0 55.8,872.0 Q53.1,880.0 50.5,887.0 Q48.0,893.9 47.6,895.0 Q47.2,896.0 44.2,904.0 Q41.2,912.0 38.0,920.0 Q34.8,928.0 33.4,931.3 Q32.0,934.6 30.0,939.3 Q28.0,944.0 24.5,952.0 Q20.9,960.0 18.5,965.3 Q16.0,970.6 14.7,973.3 Q13.4,976.0 9.4,984.0 Q5.5,992.0 2.7,997.2 L0.0,1002.5"/><path d="M960.0,146.2 Q944.0,154.8 938.9,157.4 Q933.8,160.0 930.9,161.6 Q928.0,163.2 920.0,167.4 Q912.0,171.5 907.4,173.8 Q902.7,176.0 899.4,177.8 Q896.0,179.6 888.0,183.5 Q880.0,187.5 874.9,189.7 Q869.9,192.0 866.9,193.5 Q864.0,195.0 856.0,198.6 Q848.0,202.2 840.6,205.1 Q833.3,208.0 832.6,208.3 Q832.0,208.6 824.0,211.7 Q816.0,214.7 808.0,217.2 Q800.0,219.7 792.0,221.6 Q784.0,223.4 782.0,223.7 Q780.0,224.0 774.0,225.0 Q768.0,226.0 760.0,226.4 Q752.0,226.8 744.0,226.1 Q736.0,225.3 733.6,224.6 Q731.2,224.0 725.6,222.6 Q720.0,221.2 712.0,217.4 Q704.0,213.6 700.3,210.8 Q696.7,208.0 692.3,204.5 Q688.0,201.1 684.1,196.5 Q680.2,192.0 676.1,186.6 Q672.0,181.3 670.5,178.6 Q669.0,176.0 665.1,168.0 Q661.1,160.0 658.5,153.6 Q656.0,147.3 655.5,145.6 Q655.0,144.0 652.8,136.0 Q650.5,128.0 648.8,120.0 Q647.1,112.0 645.8,104.0 Q644.4,96.0 643.5,88.0 Q642.5,80.0 641.8,72.0 Q641.1,64.0 640.6,56.0 Q640.1,48.0 640.1,46.0 Q640.0,44.0 639.8,38.0 Q639.6,32.0 639.5,24.0 Q639.4,16.0 639.5,8.0 L639.5,0.0"/><path d="M806.1,1600.0 Q809.6,1584.0 811.0,1576.0 Q812.5,1568.0 813.7,1560.0 Q814.8,1552.0 815.4,1547.2 Q816.0,1542.4 816.4,1539.2 Q816.8,1536.0 817.5,1528.0 Q818.3,1520.0 818.8,1512.0 Q819.4,1504.0 819.7,1496.0 Q820.0,1488.0 820.1,1480.0 Q820.2,1472.0 820.0,1464.0 Q819.9,1456.0 819.5,1448.0 Q819.2,1440.0 818.6,1432.0 Q818.0,1424.0 817.1,1416.0 Q816.2,1408.0 816.1,1407.4 Q816.0,1406.8 814.9,1399.4 Q813.8,1392.0 812.3,1384.0 Q810.8,1376.0 809.0,1368.0 Q807.1,1360.0 804.8,1352.0 Q802.5,1344.0 801.3,1340.3 Q800.0,1336.6 798.5,1332.3 Q797.0,1328.0 793.6,1320.0 Q790.3,1312.0 787.1,1305.7 Q784.0,1299.3 783.1,1297.7 Q782.3,1296.0 777.5,1288.0 Q772.7,1280.0 770.3,1276.6 Q768.0,1273.2 764.6,1268.6 Q761.2,1264.0 756.6,1258.5 Q752.0,1253.0 749.7,1250.5 Q747.4,1248.0 741.7,1242.3 Q736.0,1236.6 733.5,1234.3 Q731.0,1232.0 725.5,1227.4 Q720.0,1222.7 715.7,1219.4 Q711.3,1216.0 707.7,1213.3 Q704.0,1210.6 696.1,1205.3 Q688.3,1200.0 688.1,1199.9 Q688.0,1199.8 680.0,1194.9 Q672.0,1190.0 666.8,1187.0 Q661.5,1184.0 658.8,1182.4 Q656.0,1180.8 648.0,1176.5 Q640.0,1172.1 636.1,1170.1 Q632.1,1168.0 628.1,1165.8 Q624.0,1163.7 616.0,1159.5 Q608.0,1155.2 604.9,1153.6 Q601.8,1152.0 596.9,1149.3 Q592.0,1146.7 584.0,1142.3 Q576.0,1137.8 574.4,1136.9 Q572.7,1136.0 566.4,1132.2 Q560.0,1128.3 553.4,1124.2 Q546.9,1120.0 545.4,1119.0 Q544.0,1118.0 536.0,1112.1 Q528.0,1106.3 526.5,1105.1 Q525.0,1104.0 518.5,1098.3 Q512.0,1092.6 509.6,1090.3 Q507.1,1088.0 501.6,1081.9 Q496.0,1075.8 494.4,1073.9 Q492.7,1072.0 487.0,1064.0 Q481.2,1056.0 480.6,1055.0 Q480.0,1053.9 476.0,1047.0 Q472.1,1040.0 468.5,1032.0 Q464.9,1024.0 464.4,1022.8 Q464.0,1021.6 461.6,1014.8 Q459.1,1008.0 456.9,1000.0 Q454.7,992.0 453.0,984.0 Q451.4,976.0 450.1,968.0 Q448.9,960.0 448.4,956.2 Q448.0,952.5 447.5,948.2 Q447.0,944.0 446.4,936.0 Q445.8,928.0 445.4,920.0 Q445.1,912.0 444.9,904.0 Q444.8,896.0 444.9,888.0 Q444.9,880.0 445.2,872.0 Q445.4,864.0 445.8,856.0 Q446.3,848.0 446.8,840.0 Q447.4,832.0 447.7,828.7 Q448.0,825.4 448.4,820.7 Q448.8,816.0 449.6,808.0 Q450.4,800.0 451.4,792.0 Q452.4,784.0 453.5,776.0 Q454.6,768.0 455.9,760.0 Q457.2,752.0 458.7,744.0 Q460.1,736.0 461.8,728.0 Q463.5,720.0 463.8,719.0 Q464.0,717.9 465.6,711.0 Q467.1,704.0 469.2,696.0 Q471.2,688.0 473.5,680.0 Q475.8,672.0 477.9,665.6 Q480.0,659.2 480.5,657.6 Q481.1,656.0 483.9,648.0 Q486.7,640.0 489.9,632.0 Q493.2,624.0 494.6,620.8 Q496.0,617.6 498.1,612.8 Q500.3,608.0 504.3,600.0 Q508.2,592.0 510.1,588.5 Q512.0,585.1 514.5,580.5 Q517.1,576.0 522.0,568.0 Q526.9,560.0 527.4,559.1 Q528.0,558.3 532.8,551.1 Q537.6,544.0 540.8,539.6 Q544.0,535.2 546.8,531.6 Q549.5,528.0 554.8,521.5 Q560.0,515.0 561.3,513.5 Q562.6,512.0 569.3,504.5 Q576.0,497.0 576.5,496.5 Q577.0,496.0 584.5,488.4 Q592.0,480.8 592.4,480.4 Q592.8,480.0 600.4,473.0 Q608.0,466.0 609.2,465.0 Q610.4,464.0 617.2,458.3 Q624.0,452.5 627.0,450.3 Q630.1,448.0 635.0,444.2 Q640.0,440.4 646.4,436.2 Q652.7,432.0 654.4,430.8 Q656.0,429.7 664.0,424.9 Q672.0,420.1 676.1,418.0 Q680.2,416.0 684.1,413.9 Q688.0,411.8 696.0,408.3 Q704.0,404.8 711.4,402.4 Q718.9,400.0 719.4,399.8 Q720.0,399.6 728.0,397.4 Q736.0,395.1 744.0,393.7 Q752.0,392.3 760.0,391.6 Q768.0,390.8 776.0,390.7 Q784.0,390.5 792.0,390.9 Q800.0,391.2 808.0,392.1 Q816.0,393.0 824.0,394.3 Q832.0,395.6 840.0,397.3 Q848.0,399.1 849.6,399.5 Q851.2,400.0 857.6,401.5 Q864.0,403.1 872.0,405.4 Q880.0,407.8 888.0,410.7 Q896.0,413.6 898.8,414.8 Q901.6,416.0 906.8,418.0 Q912.0,420.1 920.0,423.8 Q928.0,427.5 932.0,429.8 Q936.1,432.0 940.0,434.1 Q944.0,436.1 952.0,441.1 L960.0,446.1"/><path d="M0.0,510.9 Q2.1,512.0 9.0,515.9 Q16.0,519.9 23.3,523.9 Q30.7,528.0 31.3,528.4 Q32.0,528.8 40.0,533.5 Q48.0,538.2 52.8,541.1 Q57.6,544.0 60.8,546.2 Q64.0,548.3 72.0,553.9 Q80.0,559.5 80.4,559.7 Q80.8,560.0 88.4,566.4 Q96.0,572.8 97.8,574.4 Q99.6,576.0 105.8,582.8 Q112.0,589.6 113.0,590.8 Q114.1,592.0 119.4,600.0 Q124.8,608.0 126.4,611.4 Q128.0,614.7 130.2,619.4 Q132.3,624.0 134.8,632.0 Q137.3,640.0 138.7,648.0 Q140.1,656.0 140.7,664.0 Q141.3,672.0 141.2,680.0 Q141.1,688.0 140.5,696.0 Q139.8,704.0 138.7,712.0 Q137.7,720.0 136.2,728.0 Q134.8,736.0 133.0,744.0 Q131.2,752.0 129.6,758.4 Q128.0,764.7 127.6,766.4 Q127.2,768.0 125.1,776.0 Q123.0,784.0 120.6,792.0 Q118.3,800.0 115.8,808.0 Q113.3,816.0 112.6,817.9 Q112.0,819.8 110.1,825.9 Q108.2,832.0 105.5,840.0 Q102.8,848.0 100.0,856.0 Q97.2,864.0 96.6,865.7 Q96.0,867.3 93.8,873.7 Q91.5,880.0 88.6,888.0 Q85.7,896.0 82.8,903.4 Q80.0,910.9 79.8,911.4 Q79.6,912.0 76.5,920.0 Q73.5,928.0 70.3,936.0 Q67.1,944.0 65.5,947.7 Q64.0,951.4 62.3,955.7 Q60.5,960.0 57.1,968.0 Q53.8,976.0 50.9,982.5 Q48.0,989.1 47.4,990.5 Q46.7,992.0 43.1,1000.0 Q39.5,1008.0 35.8,1015.9 Q32.0,1023.8 31.9,1023.9 Q31.9,1024.0 28.0,1032.0 Q24.1,1040.0 20.0,1047.8 Q16.0,1055.6 15.9,1055.8 Q15.8,1056.0 11.5,1064.0 Q7.2,1072.0 3.6,1078.3 L0.0,1084.7"/><path d="M0.0,1446.6 Q6.7,1456.0 11.4,1463.7 Q16.0,1471.3 16.2,1471.7 Q16.3,1472.0 19.7,1480.0 Q23.2,1488.0 25.9,1496.0 Q28.6,1504.0 30.3,1510.5 Q32.0,1517.0 32.3,1518.5 Q32.7,1520.0 34.1,1528.0 Q35.6,1536.0 36.6,1544.0 Q37.7,1552.0 38.5,1560.0 Q39.2,1568.0 39.7,1576.0 Q40.1,1584.0 40.3,1592.0 L40.6,1600.0"/><path d="M771.9,1600.0 Q776.5,1584.0 778.4,1576.0 Q780.3,1568.0 782.0,1560.0 Q783.6,1552.0 783.8,1550.8 Q784.0,1549.6 785.2,1542.8 Q786.3,1536.0 787.4,1528.0 Q788.5,1520.0 789.3,1512.0 Q790.1,1504.0 790.6,1496.0 Q791.1,1488.0 791.4,1480.0 Q791.6,1472.0 791.6,1464.0 Q791.5,1456.0 791.2,1448.0 Q790.9,1440.0 790.2,1432.0 Q789.6,1424.0 788.6,1416.0 Q787.7,1408.0 786.3,1400.0 Q785.0,1392.0 784.5,1389.7 Q784.0,1387.5 782.7,1381.7 Q781.5,1376.0 779.2,1368.0 Q777.0,1360.0 774.2,1352.0 Q771.5,1344.0 769.8,1339.7 Q768.0,1335.4 766.4,1331.7 Q764.8,1328.0 760.7,1320.0 Q756.6,1312.0 754.3,1308.1 Q752.0,1304.2 749.4,1300.1 Q746.7,1296.0 741.4,1288.7 Q736.0,1281.4 735.4,1280.7 Q734.8,1280.0 727.7,1272.0 Q720.5,1264.0 720.2,1263.8 Q720.0,1263.5 712.0,1256.2 Q704.0,1248.8 703.5,1248.4 Q703.1,1248.0 695.5,1242.1 Q688.0,1236.2 685.0,1234.1 Q682.0,1232.0 677.0,1228.6 Q672.0,1225.2 664.5,1220.6 Q657.0,1216.0 656.5,1215.7 Q656.0,1215.4 648.0,1210.9 Q640.0,1206.4 633.9,1203.2 Q627.7,1200.0 625.9,1199.0 Q624.0,1198.1 616.0,1194.1 Q608.0,1190.2 601.5,1187.1 Q595.0,1184.0 593.5,1183.3 Q592.0,1182.5 584.0,1178.8 Q576.0,1175.0 568.6,1171.5 Q561.1,1168.0 560.6,1167.7 Q560.0,1167.4 552.0,1163.5 Q544.0,1159.6 536.5,1155.8 Q529.1,1152.0 528.5,1151.7 Q528.0,1151.4 520.0,1146.9 Q512.0,1142.4 506.6,1139.2 Q501.2,1136.0 498.6,1134.3 Q496.0,1132.5 488.0,1126.9 Q480.0,1121.2 479.2,1120.6 Q478.4,1120.0 471.2,1113.7 Q464.0,1107.4 462.2,1105.7 Q460.3,1104.0 454.2,1097.0 Q448.0,1090.1 447.1,1089.0 Q446.3,1088.0 440.8,1080.0 Q435.3,1072.0 433.6,1069.0 Q432.0,1066.0 429.4,1061.0 Q426.8,1056.0 423.5,1048.0 Q420.2,1040.0 418.1,1033.3 Q416.0,1026.7 415.6,1025.3 Q415.2,1024.0 413.2,1016.0 Q411.2,1008.0 409.7,1000.0 Q408.2,992.0 407.1,984.0 Q406.0,976.0 405.2,968.0 Q404.4,960.0 403.8,952.0 Q403.3,944.0 402.9,936.0 Q402.5,928.0 402.3,920.0 Q402.1,912.0 402.0,904.0 Q401.9,896.0 401.9,888.0 Q401.9,880.0 401.9,872.0 Q402.0,864.0 402.1,856.0 Q402.2,848.0 402.4,840.0 Q402.6,832.0 402.8,824.0 Q403.0,816.0 403.2,808.0 Q403.5,800.0 403.7,792.0 Q404.0,784.0 404.3,776.0 Q404.6,768.0 404.9,760.0 Q405.3,752.0 405.6,744.0 Q406.0,736.0 406.4,728.0 Q406.8,720.0 407.3,712.0 Q407.8,704.0 408.3,696.0 Q408.9,688.0 409.6,680.0 Q410.3,672.0 411.2,664.0 Q412.1,656.0 413.2,648.0 Q414.3,640.0 415.1,635.1 Q416.0,630.2 416.5,627.1 Q417.0,624.0 418.6,616.0 Q420.2,608.0 422.2,600.0 Q424.2,592.0 426.8,584.0 Q429.4,576.0 430.7,572.6 Q432.0,569.2 433.7,564.6 Q435.4,560.0 438.8,552.0 Q442.3,544.0 445.1,538.4 Q448.0,532.8 449.2,530.4 Q450.3,528.0 454.7,520.0 Q459.1,512.0 461.6,508.0 Q464.0,504.0 466.4,500.0 Q468.8,496.0 474.0,488.0 Q479.2,480.0 479.6,479.4 Q480.0,478.8 485.0,471.4 Q490.0,464.0 493.0,459.7 Q496.0,455.4 498.6,451.7 Q501.2,448.0 506.6,440.4 Q512.0,432.8 512.3,432.4 Q512.5,432.0 518.2,424.0 Q523.9,416.0 525.9,413.0 Q528.0,409.9 531.4,405.0 Q534.9,400.0 539.4,393.0 Q544.0,385.9 544.6,385.0 Q545.3,384.0 550.1,376.0 Q555.0,368.0 557.5,363.2 Q560.0,358.5 561.8,355.2 Q563.5,352.0 567.2,344.0 Q570.9,336.0 573.4,328.9 Q576.0,321.9 576.3,320.9 Q576.7,320.0 579.1,312.0 Q581.5,304.0 583.3,296.0 Q585.0,288.0 586.3,280.0 Q587.5,272.0 588.4,264.0 Q589.3,256.0 589.9,248.0 Q590.5,240.0 591.0,232.0 Q591.5,224.0 591.8,219.3 Q592.0,214.6 592.2,211.3 Q592.3,208.0 592.7,200.0 Q593.1,192.0 593.5,184.0 Q593.9,176.0 594.3,168.0 Q594.8,160.0 595.2,152.0 Q595.6,144.0 596.1,136.0 Q596.6,128.0 597.1,120.0 Q597.6,112.0 598.2,104.0 Q598.7,96.0 599.3,88.0 Q599.9,80.0 600.5,72.0 Q601.2,64.0 601.8,56.0 Q602.5,48.0 603.2,40.0 Q603.9,32.0 604.6,24.0 Q605.3,16.0 606.0,8.0 L606.7,0.0"/><path d="M960.0,370.7 Q956.8,368.0 950.4,361.8 Q944.0,355.5 942.0,353.8 Q940.0,352.0 934.0,345.2 Q928.0,338.4 926.8,337.2 Q925.7,336.0 920.4,328.0 Q915.2,320.0 913.6,315.1 Q912.0,310.3 910.9,307.1 Q909.8,304.0 909.7,296.0 Q909.5,288.0 910.8,283.9 Q912.0,279.9 913.1,275.9 Q914.2,272.0 918.6,264.0 Q923.0,256.0 925.5,252.9 Q928.0,249.9 931.7,244.9 Q935.5,240.0 939.7,235.7 Q944.0,231.4 947.5,227.7 Q950.9,224.0 955.5,220.1 L960.0,216.1"/><path d="M0.0,467.3 Q16.0,475.3 21.1,477.7 Q26.1,480.0 29.1,481.4 Q32.0,482.8 40.0,486.4 Q48.0,489.9 55.1,493.0 Q62.3,496.0 63.1,496.4 Q64.0,496.8 72.0,500.2 Q80.0,503.7 88.0,507.1 Q96.0,510.5 97.8,511.3 Q99.6,512.0 105.8,514.9 Q112.0,517.8 120.0,521.6 Q128.0,525.4 130.8,526.7 Q133.6,528.0 138.8,530.9 Q144.0,533.8 152.0,538.5 Q160.0,543.2 160.7,543.6 Q161.4,544.0 168.7,549.4 Q176.0,554.8 179.3,557.4 Q182.7,560.0 187.3,565.0 Q192.0,569.9 194.8,573.0 Q197.6,576.0 202.4,584.0 Q207.3,592.0 207.7,592.9 Q208.0,593.9 210.7,600.9 Q213.3,608.0 214.7,616.0 Q216.1,624.0 216.2,632.0 Q216.4,640.0 215.6,648.0 Q214.8,656.0 213.3,664.0 Q211.8,672.0 209.9,679.2 Q208.0,686.5 207.8,687.2 Q207.7,688.0 205.4,696.0 Q203.1,704.0 200.4,712.0 Q197.8,720.0 194.9,727.8 Q192.0,735.6 191.9,735.8 Q191.9,736.0 189.0,744.0 Q186.1,752.0 183.0,760.0 Q179.9,768.0 177.9,772.7 Q176.0,777.4 174.8,780.7 Q173.6,784.0 170.4,792.0 Q167.3,800.0 164.1,808.0 Q160.8,816.0 160.4,817.0 Q160.0,818.0 157.3,825.0 Q154.6,832.0 151.4,840.0 Q148.3,848.0 146.1,853.2 Q144.0,858.5 143.0,861.2 Q141.9,864.0 138.8,872.0 Q135.8,880.0 132.6,888.0 Q129.4,896.0 128.7,897.8 Q128.0,899.5 125.7,905.8 Q123.3,912.0 120.2,920.0 Q117.1,928.0 114.6,934.5 Q112.0,941.0 111.4,942.5 Q110.9,944.0 107.9,952.0 Q104.8,960.0 101.7,968.0 Q98.6,976.0 97.3,979.3 Q96.0,982.7 94.2,987.3 Q92.5,992.0 89.4,1000.0 Q86.3,1008.0 83.1,1015.9 Q80.0,1023.8 80.0,1023.9 Q79.9,1024.0 76.8,1032.0 Q73.8,1040.0 70.6,1048.0 Q67.4,1056.0 65.7,1060.2 Q64.0,1064.5 62.5,1068.2 Q61.0,1072.0 57.8,1080.0 Q54.6,1088.0 51.3,1096.0 Q48.0,1104.0 48.0,1104.0 Q48.0,1104.1 44.8,1112.0 Q41.6,1120.0 38.4,1128.0 Q35.2,1136.0 33.6,1140.1 Q32.0,1144.2 30.4,1148.1 Q28.8,1152.0 25.7,1160.0 Q22.7,1168.0 19.7,1176.0 Q16.8,1184.0 16.4,1185.3 Q16.0,1186.5 13.7,1193.3 Q11.5,1200.0 9.2,1208.0 Q6.9,1216.0 5.2,1224.0 Q3.4,1232.0 2.5,1240.0 Q1.6,1248.0 1.8,1256.0 Q1.9,1264.0 3.3,1272.0 Q4.8,1280.0 7.6,1288.0 Q10.5,1296.0 13.2,1301.3 Q16.0,1306.5 17.3,1309.3 Q18.7,1312.0 23.4,1320.0 Q28.1,1328.0 30.0,1331.0 Q32.0,1334.0 34.8,1339.0 Q37.6,1344.0 42.1,1352.0 Q46.6,1360.0 47.3,1361.3 Q48.0,1362.6 51.1,1369.3 Q54.1,1376.0 57.3,1384.0 Q60.5,1392.0 62.3,1397.0 Q64.0,1402.0 64.9,1405.0 Q65.7,1408.0 67.7,1416.0 Q69.7,1424.0 71.2,1432.0 Q72.7,1440.0 73.9,1448.0 Q75.0,1456.0 75.8,1464.0 Q76.7,1472.0 77.2,1480.0 Q77.7,1488.0 77.9,1496.0 Q78.2,1504.0 78.3,1512.0 Q78.3,1520.0 78.2,1528.0 Q78.1,1536.0 77.8,1544.0 Q77.5,1552.0 77.1,1560.0 Q76.7,1568.0 76.2,1576.0 Q75.7,1584.0 75.1,1592.0 L74.5,1600.0"/><path d="M0.0,424.6 Q14.3,432.0 15.2,432.4 Q16.0,432.8 24.0,436.4 Q32.0,440.0 40.0,443.2 Q48.0,446.4 50.3,447.2 Q52.6,448.0 58.3,450.0 Q64.0,452.1 72.0,454.6 Q80.0,457.2 88.0,459.5 Q96.0,461.7 100.5,462.9 Q105.0,464.0 108.5,464.9 Q112.0,465.9 120.0,467.8 Q128.0,469.7 136.0,471.4 Q144.0,473.1 152.0,474.6 Q160.0,476.1 168.0,477.5 Q176.0,478.8 180.6,479.4 Q185.2,480.0 188.6,480.5 Q192.0,481.1 200.0,482.0 Q208.0,483.0 216.0,483.6 Q224.0,484.3 232.0,484.6 Q240.0,484.9 248.0,484.8 Q256.0,484.7 264.0,484.0 Q272.0,483.3 280.0,481.9 Q288.0,480.5 288.9,480.2 Q289.9,480.0 296.9,478.2 Q304.0,476.4 312.0,473.5 Q320.0,470.5 326.5,467.3 Q333.0,464.0 334.5,463.3 Q336.0,462.6 344.0,457.8 Q352.0,453.1 355.5,450.5 Q359.0,448.0 363.5,444.9 Q368.0,441.7 373.9,436.9 Q379.8,432.0 381.9,430.3 Q384.0,428.6 390.9,422.3 Q397.9,416.0 398.9,415.0 Q400.0,414.1 407.0,407.0 Q414.1,400.0 415.0,399.0 Q416.0,398.1 422.5,391.0 Q428.9,384.0 430.5,382.3 Q432.0,380.6 437.3,374.3 Q442.6,368.0 445.3,364.7 Q448.0,361.5 451.7,356.7 Q455.3,352.0 459.7,346.1 Q464.0,340.2 465.5,338.1 Q466.9,336.0 472.3,328.0 Q477.7,320.0 478.8,318.2 Q480.0,316.3 483.8,310.2 Q487.5,304.0 491.8,296.4 Q496.0,288.7 496.2,288.4 Q496.4,288.0 500.5,280.0 Q504.6,272.0 508.3,264.0 Q511.9,256.0 512.0,255.9 Q512.0,255.8 515.4,247.9 Q518.8,240.0 521.8,232.0 Q524.8,224.0 526.4,219.5 Q528.0,214.9 529.2,211.5 Q530.4,208.0 532.9,200.0 Q535.5,192.0 537.8,184.0 Q540.1,176.0 542.1,168.7 Q544.0,161.5 544.2,160.7 Q544.4,160.0 546.4,152.0 Q548.5,144.0 550.3,136.0 Q552.2,128.0 553.9,120.0 Q555.7,112.0 557.3,104.0 Q558.9,96.0 559.5,93.3 Q560.0,90.6 561.0,85.3 Q562.1,80.0 563.6,72.0 Q565.0,64.0 566.5,56.0 Q567.9,48.0 569.2,40.0 Q570.5,32.0 571.8,24.0 Q573.1,16.0 574.3,8.0 L575.5,0.0"/><path d="M106.2,1600.0 Q108.5,1584.0 109.7,1576.0 Q110.9,1568.0 111.5,1564.2 Q112.0,1560.3 112.6,1556.2 Q113.2,1552.0 114.3,1544.0 Q115.5,1536.0 116.6,1528.0 Q117.7,1520.0 118.8,1512.0 Q119.8,1504.0 120.9,1496.0 Q122.0,1488.0 123.0,1480.0 Q124.0,1472.0 124.9,1464.0 Q125.9,1456.0 126.8,1448.0 Q127.7,1440.0 127.8,1438.3 Q128.0,1436.7 128.6,1430.3 Q129.2,1424.0 129.9,1416.0 Q130.6,1408.0 131.1,1400.0 Q131.7,1392.0 132.1,1384.0 Q132.5,1376.0 132.7,1368.0 Q132.9,1360.0 132.9,1352.0 Q133.0,1344.0 132.8,1336.0 Q132.6,1328.0 132.1,1320.0 Q131.6,1312.0 130.9,1304.0 Q130.1,1296.0 129.2,1288.0 Q128.2,1280.0 128.1,1279.4 Q128.0,1278.8 126.9,1271.4 Q125.8,1264.0 124.4,1256.0 Q123.1,1248.0 121.8,1240.0 Q120.5,1232.0 119.4,1224.0 Q118.3,1216.0 117.4,1208.0 Q116.5,1200.0 116.0,1192.0 Q115.5,1184.0 115.3,1176.0 Q115.2,1168.0 115.5,1160.0 Q115.8,1152.0 116.4,1144.0 Q117.1,1136.0 118.1,1128.0 Q119.1,1120.0 120.4,1112.0 Q121.6,1104.0 123.1,1096.0 Q124.6,1088.0 126.3,1080.0 Q128.0,1072.0 128.0,1071.9 Q128.0,1071.9 130.0,1063.9 Q132.1,1056.0 134.2,1048.0 Q136.4,1040.0 138.6,1032.0 Q140.9,1024.0 142.4,1018.7 Q144.0,1013.3 144.8,1010.7 Q145.7,1008.0 148.4,1000.0 Q151.1,992.0 153.8,984.0 Q156.5,976.0 158.2,970.9 Q160.0,965.8 161.1,962.9 Q162.2,960.0 165.3,952.0 Q168.5,944.0 171.6,936.0 Q174.8,928.0 175.4,926.4 Q176.0,924.9 178.9,918.4 Q181.8,912.0 185.4,904.0 Q189.0,896.0 190.5,892.7 Q192.0,889.4 194.5,884.7 Q196.9,880.0 201.1,872.0 Q205.2,864.0 206.6,861.3 Q208.0,858.6 211.3,853.3 Q214.5,848.0 219.3,840.0 Q224.0,832.1 224.0,832.0 Q224.1,832.0 230.0,824.0 Q235.9,816.0 237.9,813.1 Q240.0,810.1 244.8,805.1 Q249.5,800.0 252.8,796.4 Q256.0,792.7 261.8,788.4 Q267.7,784.0 269.8,782.3 Q272.0,780.5 280.0,777.6 Q288.0,774.7 296.0,776.0 Q304.0,777.2 307.8,780.6 Q311.7,784.0 315.8,788.6 Q320.0,793.1 321.6,796.6 Q323.3,800.0 326.4,808.0 Q329.5,816.0 331.9,824.0 Q334.2,832.0 335.1,835.7 Q336.0,839.5 336.7,843.7 Q337.4,848.0 338.5,856.0 Q339.6,864.0 340.5,872.0 Q341.4,880.0 342.1,888.0 Q342.8,896.0 343.3,904.0 Q343.9,912.0 344.3,920.0 Q344.8,928.0 345.2,936.0 Q345.7,944.0 346.1,952.0 Q346.6,960.0 347.1,968.0 Q347.6,976.0 348.2,984.0 Q348.8,992.0 349.6,1000.0 Q350.4,1008.0 351.2,1013.9 Q352.0,1019.8 352.3,1021.9 Q352.5,1024.0 353.9,1032.0 Q355.2,1040.0 357.1,1048.0 Q358.9,1056.0 361.5,1064.0 Q364.1,1072.0 366.1,1076.3 Q368.0,1080.7 369.6,1084.3 Q371.2,1088.0 376.1,1096.0 Q380.9,1104.0 382.4,1106.0 Q384.0,1107.9 389.0,1114.0 Q394.0,1120.0 397.0,1122.8 Q400.0,1125.5 406.1,1130.8 Q412.1,1136.0 414.1,1137.4 Q416.0,1138.7 424.0,1144.0 Q432.0,1149.2 434.2,1150.6 Q436.5,1152.0 442.2,1155.0 Q448.0,1158.0 456.0,1162.0 Q464.0,1165.9 466.2,1167.0 Q468.4,1168.0 474.2,1170.5 Q480.0,1172.9 488.0,1176.2 Q496.0,1179.5 501.5,1181.8 Q507.1,1184.0 509.5,1184.9 Q512.0,1185.8 520.0,1188.9 Q528.0,1191.9 536.0,1195.0 Q544.0,1198.1 546.4,1199.0 Q548.8,1200.0 554.4,1202.2 Q560.0,1204.3 568.0,1207.5 Q576.0,1210.8 582.1,1213.4 Q588.3,1216.0 590.1,1216.8 Q592.0,1217.6 600.0,1221.2 Q608.0,1224.8 615.3,1228.4 Q622.5,1232.0 623.3,1232.4 Q624.0,1232.7 632.0,1237.1 Q640.0,1241.5 645.4,1244.8 Q650.7,1248.0 653.4,1249.7 Q656.0,1251.3 664.0,1256.9 Q672.0,1262.6 672.9,1263.3 Q673.9,1264.0 680.9,1269.9 Q688.0,1275.8 690.3,1277.9 Q692.6,1280.0 698.3,1285.8 Q704.0,1291.6 705.9,1293.8 Q707.9,1296.0 713.9,1303.7 Q720.0,1311.3 720.2,1311.7 Q720.5,1312.0 725.5,1320.0 Q730.6,1328.0 733.3,1333.0 Q736.0,1338.0 737.5,1341.0 Q739.0,1344.0 742.4,1352.0 Q745.8,1360.0 748.5,1368.0 Q751.2,1376.0 751.6,1377.3 Q752.0,1378.7 753.8,1385.3 Q755.5,1392.0 757.1,1400.0 Q758.8,1408.0 759.9,1416.0 Q761.1,1424.0 761.9,1432.0 Q762.6,1440.0 763.0,1448.0 Q763.4,1456.0 763.5,1464.0 Q763.5,1472.0 763.2,1480.0 Q762.9,1488.0 762.2,1496.0 Q761.6,1504.0 760.6,1512.0 Q759.7,1520.0 758.4,1528.0 Q757.1,1536.0 755.5,1544.0 Q753.9,1552.0 753.0,1555.9 Q752.0,1559.9 751.0,1563.9 Q750.0,1568.0 747.7,1576.0 Q745.5,1584.0 742.8,1592.0 L740.2,1600.0"/><path d="M0.0,380.1 Q6.2,384.0 11.1,386.9 Q16.0,389.8 24.0,393.8 Q32.0,397.8 34.6,398.9 Q37.3,400.0 42.6,402.2 Q48.0,404.4 56.0,407.1 Q64.0,409.9 72.0,412.1 Q80.0,414.4 83.5,415.2 Q87.0,416.0 91.5,417.0 Q96.0,418.1 104.0,419.5 Q112.0,421.0 120.0,422.1 Q128.0,423.2 136.0,423.9 Q144.0,424.7 152.0,425.1 Q160.0,425.4 168.0,425.5 Q176.0,425.5 184.0,425.2 Q192.0,424.8 200.0,424.1 Q208.0,423.3 216.0,422.2 Q224.0,421.0 232.0,419.3 Q240.0,417.7 243.2,416.8 Q246.4,416.0 251.2,414.7 Q256.0,413.5 264.0,410.9 Q272.0,408.3 280.0,405.0 Q288.0,401.8 289.9,400.9 Q291.9,400.0 297.9,397.2 Q304.0,394.3 312.0,389.9 Q320.0,385.4 321.1,384.7 Q322.3,384.0 329.1,379.7 Q336.0,375.4 341.2,371.7 Q346.4,368.0 349.2,366.0 Q352.0,364.0 359.4,358.0 Q366.9,352.0 367.4,351.5 Q368.0,351.1 376.0,343.9 Q384.0,336.8 384.4,336.4 Q384.8,336.0 392.4,328.4 Q400.0,320.8 400.4,320.4 Q400.8,320.0 408.0,312.0 Q415.2,304.0 415.6,303.5 Q416.0,303.1 422.2,295.5 Q428.3,288.0 430.2,285.6 Q432.0,283.3 436.1,277.6 Q440.3,272.0 444.1,266.4 Q448.0,260.9 449.6,258.4 Q451.2,256.0 456.2,248.0 Q461.2,240.0 462.6,237.7 Q464.0,235.3 467.2,229.7 Q470.4,224.0 474.6,216.0 Q478.9,208.0 479.4,206.9 Q480.0,205.7 483.3,198.9 Q486.6,192.0 490.2,184.0 Q493.8,176.0 494.9,173.3 Q496.0,170.7 498.2,165.3 Q500.4,160.0 503.4,152.0 Q506.4,144.0 509.2,136.1 Q512.0,128.2 512.0,128.1 Q512.0,128.0 514.7,120.0 Q517.3,112.0 519.7,104.0 Q522.2,96.0 524.4,88.0 Q526.6,80.0 527.3,77.5 Q528.0,75.0 529.4,69.5 Q530.9,64.0 532.8,56.0 Q534.8,48.0 536.6,40.0 Q538.4,32.0 540.1,24.0 Q541.8,16.0 542.9,10.4 Q544.0,4.8 544.5,2.4 L544.9,0.0"/><path d="M136.9,1600.0 Q140.1,1584.0 141.7,1576.0 Q143.4,1568.0 143.7,1566.6 Q144.0,1565.2 145.4,1558.6 Q146.8,1552.0 148.6,1544.0 Q150.4,1536.0 152.2,1528.0 Q154.1,1520.0 156.0,1512.0 Q157.9,1504.0 158.9,1499.7 Q160.0,1495.4 160.9,1491.7 Q161.9,1488.0 163.9,1480.0 Q165.9,1472.0 168.1,1464.0 Q170.2,1456.0 172.4,1448.0 Q174.6,1440.0 175.3,1437.5 Q176.0,1435.0 177.6,1429.5 Q179.2,1424.0 181.5,1416.0 Q183.9,1408.0 186.3,1400.0 Q188.8,1392.0 190.4,1386.9 Q192.0,1381.9 193.0,1378.9 Q193.9,1376.0 196.6,1368.0 Q199.3,1360.0 202.1,1352.0 Q204.9,1344.0 206.4,1339.6 Q208.0,1335.3 209.4,1331.6 Q210.8,1328.0 213.9,1320.0 Q217.0,1312.0 220.4,1304.0 Q223.7,1296.0 223.9,1295.7 Q224.0,1295.3 227.5,1287.7 Q231.0,1280.0 235.0,1272.0 Q239.0,1264.0 239.5,1263.0 Q240.0,1262.1 244.2,1255.0 Q248.4,1248.0 252.2,1242.2 Q256.0,1236.4 257.9,1234.2 Q259.7,1232.0 265.9,1225.3 Q272.0,1218.7 273.8,1217.3 Q275.6,1216.0 281.8,1211.7 Q288.0,1207.4 296.0,1204.4 Q304.0,1201.3 307.4,1200.7 Q310.7,1200.0 315.4,1199.1 Q320.0,1198.3 328.0,1197.8 Q336.0,1197.3 344.0,1197.5 Q352.0,1197.8 360.0,1198.4 Q368.0,1199.1 371.7,1199.5 Q375.4,1200.0 379.7,1200.4 Q384.0,1200.9 392.0,1202.0 Q400.0,1203.1 408.0,1204.3 Q416.0,1205.6 424.0,1206.9 Q432.0,1208.3 440.0,1209.9 Q448.0,1211.4 456.0,1213.0 Q464.0,1214.7 466.9,1215.3 Q469.9,1216.0 474.9,1217.1 Q480.0,1218.1 488.0,1220.0 Q496.0,1221.9 504.0,1223.9 Q512.0,1225.9 520.0,1228.1 Q528.0,1230.3 530.7,1231.2 Q533.4,1232.0 538.7,1233.6 Q544.0,1235.2 552.0,1237.8 Q560.0,1240.5 568.0,1243.4 Q576.0,1246.3 578.0,1247.2 Q580.0,1248.0 586.0,1250.5 Q592.0,1253.0 600.0,1256.7 Q608.0,1260.4 611.5,1262.2 Q614.9,1264.0 619.5,1266.5 Q624.0,1268.9 632.0,1273.8 Q640.0,1278.7 640.9,1279.4 Q641.9,1280.0 648.9,1285.2 Q656.0,1290.4 659.4,1293.2 Q662.8,1296.0 667.4,1300.2 Q672.0,1304.3 675.8,1308.2 Q679.5,1312.0 683.8,1316.9 Q688.0,1321.7 690.5,1324.9 Q692.9,1328.0 698.4,1336.0 Q703.8,1344.0 703.9,1344.2 Q704.0,1344.4 708.2,1352.2 Q712.3,1360.0 715.8,1368.0 Q719.3,1376.0 719.6,1377.0 Q720.0,1378.0 722.3,1385.0 Q724.7,1392.0 726.7,1400.0 Q728.8,1408.0 730.3,1416.0 Q731.8,1424.0 732.8,1432.0 Q733.8,1440.0 734.4,1448.0 Q734.9,1456.0 735.0,1464.0 Q735.1,1472.0 734.9,1480.0 Q734.6,1488.0 733.9,1496.0 Q733.2,1504.0 732.2,1512.0 Q731.2,1520.0 729.8,1528.0 Q728.4,1536.0 726.6,1544.0 Q724.8,1552.0 722.7,1560.0 Q720.5,1568.0 720.3,1568.8 Q720.0,1569.7 717.7,1576.8 Q715.5,1584.0 712.6,1592.0 L709.6,1600.0"/><path d="M0.0,329.9 Q6.9,336.0 11.4,339.6 Q16.0,343.2 22.8,347.6 Q29.6,352.0 30.8,352.7 Q32.0,353.4 40.0,357.4 Q48.0,361.4 56.0,364.5 Q64.0,367.7 64.5,367.8 Q65.1,368.0 72.5,370.2 Q80.0,372.5 88.0,374.3 Q96.0,376.1 104.0,377.4 Q112.0,378.7 120.0,379.5 Q128.0,380.3 136.0,380.6 Q144.0,380.9 152.0,380.8 Q160.0,380.7 168.0,380.1 Q176.0,379.5 184.0,378.5 Q192.0,377.4 200.0,376.0 Q208.0,374.5 216.0,372.5 Q224.0,370.5 228.1,369.3 Q232.3,368.0 236.1,366.8 Q240.0,365.6 248.0,362.7 Q256.0,359.7 264.0,356.2 Q272.0,352.7 272.7,352.4 Q273.4,352.0 280.7,348.3 Q288.0,344.7 295.5,340.3 Q302.9,336.0 303.5,335.7 Q304.0,335.4 312.0,330.2 Q320.0,325.0 323.4,322.5 Q326.8,320.0 331.4,316.6 Q336.0,313.2 341.6,308.6 Q347.2,304.0 349.6,302.0 Q352.0,300.0 358.6,294.0 Q365.2,288.0 366.6,286.7 Q368.0,285.3 374.6,278.7 Q381.1,272.0 382.6,270.5 Q384.0,269.0 389.8,262.5 Q395.5,256.0 397.8,253.3 Q400.0,250.7 404.3,245.3 Q408.6,240.0 412.3,235.1 Q416.0,230.2 418.2,227.1 Q420.4,224.0 425.9,216.0 Q431.3,208.0 431.7,207.5 Q432.0,207.0 436.7,199.5 Q441.3,192.0 444.7,186.2 Q448.0,180.5 449.2,178.2 Q450.5,176.0 454.7,168.0 Q458.9,160.0 461.5,154.8 Q464.0,149.7 465.3,146.8 Q466.7,144.0 470.3,136.0 Q473.8,128.0 476.9,120.5 Q480.0,113.1 480.2,112.5 Q480.4,112.0 483.5,104.0 Q486.5,96.0 489.3,88.0 Q492.1,80.0 494.1,74.1 Q496.0,68.2 496.7,66.1 Q497.3,64.0 499.7,56.0 Q502.1,48.0 504.3,40.0 Q506.5,32.0 508.5,24.0 Q510.5,16.0 511.3,12.8 Q512.0,9.7 513.1,4.8 L514.2,0.0"/><path d="M167.4,1600.0 Q171.3,1584.0 173.3,1576.0 Q175.4,1568.0 175.7,1566.8 Q176.0,1565.6 177.9,1558.8 Q179.7,1552.0 182.0,1544.0 Q184.3,1536.0 186.8,1528.0 Q189.2,1520.0 190.6,1515.6 Q192.0,1511.2 193.2,1507.6 Q194.4,1504.0 197.1,1496.0 Q199.9,1488.0 202.8,1480.0 Q205.7,1472.0 206.8,1468.9 Q208.0,1465.8 209.9,1460.9 Q211.9,1456.0 215.2,1448.0 Q218.5,1440.0 221.2,1433.7 Q224.0,1427.3 224.8,1425.7 Q225.5,1424.0 229.3,1416.0 Q233.1,1408.0 236.6,1401.2 Q240.0,1394.5 240.7,1393.2 Q241.3,1392.0 245.8,1384.0 Q250.3,1376.0 253.2,1371.2 Q256.0,1366.5 258.1,1363.2 Q260.2,1360.0 265.7,1352.0 Q271.3,1344.0 271.6,1343.5 Q272.0,1343.0 278.0,1335.5 Q284.0,1328.0 286.0,1325.6 Q288.0,1323.3 293.5,1317.6 Q299.0,1312.0 301.5,1309.6 Q304.0,1307.1 310.8,1301.6 Q317.6,1296.0 318.8,1295.1 Q320.0,1294.1 328.0,1288.9 Q336.0,1283.7 339.6,1281.9 Q343.2,1280.0 347.6,1277.8 Q352.0,1275.6 360.0,1272.6 Q368.0,1269.5 376.0,1267.2 Q384.0,1265.0 386.3,1264.5 Q388.7,1264.0 394.3,1262.9 Q400.0,1261.7 408.0,1260.7 Q416.0,1259.7 424.0,1259.1 Q432.0,1258.6 440.0,1258.4 Q448.0,1258.3 456.0,1258.6 Q464.0,1258.9 472.0,1259.5 Q480.0,1260.2 488.0,1261.1 Q496.0,1262.1 501.7,1263.0 Q507.4,1264.0 509.7,1264.4 Q512.0,1264.7 520.0,1266.4 Q528.0,1268.1 536.0,1270.1 Q544.0,1272.2 552.0,1274.6 Q560.0,1277.1 564.0,1278.5 Q568.0,1280.0 572.0,1281.5 Q576.0,1283.0 584.0,1286.5 Q592.0,1290.0 597.9,1293.0 Q603.9,1296.0 605.9,1297.1 Q608.0,1298.2 616.0,1303.2 Q624.0,1308.2 626.6,1310.1 Q629.3,1312.0 634.6,1316.2 Q640.0,1320.4 644.2,1324.2 Q648.5,1328.0 652.2,1331.8 Q656.0,1335.6 659.7,1339.8 Q663.3,1344.0 667.7,1349.8 Q672.0,1355.5 673.5,1357.8 Q675.0,1360.0 679.6,1368.0 Q684.2,1376.0 686.1,1380.1 Q688.0,1384.2 689.7,1388.1 Q691.3,1392.0 694.0,1400.0 Q696.7,1408.0 698.8,1416.0 Q700.8,1424.0 702.2,1432.0 Q703.6,1440.0 703.8,1441.9 Q704.0,1443.7 704.6,1449.9 Q705.2,1456.0 705.5,1464.0 Q705.9,1472.0 705.7,1480.0 Q705.5,1488.0 704.9,1496.0 Q704.3,1504.0 704.2,1505.3 Q704.0,1506.6 703.1,1513.3 Q702.2,1520.0 700.8,1528.0 Q699.3,1536.0 697.4,1544.0 Q695.6,1552.0 693.3,1560.0 Q691.0,1568.0 689.5,1572.5 Q688.0,1577.0 686.8,1580.5 Q685.6,1584.0 682.5,1592.0 L679.3,1600.0"/><path d="M0.0,95.8 Q5.9,80.0 9.3,72.0 Q12.7,64.0 14.4,60.5 Q16.0,57.1 18.2,52.5 Q20.4,48.0 24.7,40.0 Q28.9,32.0 30.5,29.4 Q32.0,26.7 35.2,21.4 Q38.4,16.0 43.2,8.5 Q48.0,1.0 48.3,0.5 L48.7,0.0"/><path d="M0.0,261.6 Q5.8,272.0 10.9,279.2 Q16.0,286.4 16.7,287.2 Q17.4,288.0 24.7,295.2 Q32.0,302.5 32.9,303.2 Q33.9,304.0 40.9,309.0 Q48.0,313.9 53.5,317.0 Q58.9,320.0 61.5,321.3 Q64.0,322.5 72.0,325.7 Q80.0,328.8 88.0,331.1 Q96.0,333.3 103.0,334.7 Q110.0,336.0 111.0,336.2 Q112.0,336.4 120.0,337.2 Q128.0,338.0 136.0,338.3 Q144.0,338.5 152.0,338.2 Q160.0,337.9 168.0,337.1 Q176.0,336.2 176.6,336.1 Q177.2,336.0 184.6,334.7 Q192.0,333.5 200.0,331.6 Q208.0,329.7 216.0,327.3 Q224.0,324.8 230.6,322.4 Q237.1,320.0 238.6,319.5 Q240.0,318.9 248.0,315.4 Q256.0,311.9 263.8,308.0 Q271.6,304.0 271.8,303.9 Q272.0,303.8 280.0,299.1 Q288.0,294.5 292.9,291.2 Q297.9,288.0 300.9,285.9 Q304.0,283.9 312.0,277.9 Q320.0,272.0 320.0,272.0 Q320.0,272.0 328.0,265.3 Q336.0,258.6 337.4,257.3 Q338.9,256.0 345.4,249.8 Q352.0,243.7 353.8,241.8 Q355.6,240.0 361.8,233.5 Q368.0,227.0 369.3,225.5 Q370.6,224.0 377.3,216.1 Q384.0,208.2 384.1,208.1 Q384.2,208.0 390.3,200.0 Q396.4,192.0 398.2,189.5 Q400.0,187.0 403.8,181.5 Q407.6,176.0 411.8,169.5 Q416.0,162.9 416.9,161.5 Q417.8,160.0 422.5,152.0 Q427.1,144.0 429.6,139.5 Q432.0,135.1 433.8,131.5 Q435.7,128.0 439.6,120.0 Q443.5,112.0 445.8,107.1 Q448.0,102.3 449.4,99.1 Q450.8,96.0 454.0,88.0 Q457.3,80.0 460.4,72.0 Q463.4,64.0 463.7,63.1 Q464.0,62.2 466.4,55.1 Q468.8,48.0 471.3,40.0 Q473.8,32.0 476.1,24.0 Q478.3,16.0 479.2,12.8 Q480.0,9.5 481.2,4.8 L482.4,0.0"/><path d="M198.7,1600.0 Q203.1,1584.0 205.4,1576.0 Q207.8,1568.0 207.9,1567.7 Q208.0,1567.3 210.5,1559.7 Q213.0,1552.0 215.7,1544.0 Q218.5,1536.0 221.3,1528.6 Q224.0,1521.1 224.2,1520.6 Q224.4,1520.0 227.7,1512.0 Q230.9,1504.0 234.3,1496.0 Q237.8,1488.0 238.9,1485.5 Q240.0,1483.1 242.6,1477.5 Q245.3,1472.0 249.3,1464.0 Q253.3,1456.0 254.7,1453.5 Q256.0,1451.0 259.1,1445.5 Q262.2,1440.0 267.0,1432.0 Q271.8,1424.0 271.9,1423.8 Q272.0,1423.6 277.2,1415.8 Q282.4,1408.0 285.2,1404.1 Q288.0,1400.2 291.2,1396.1 Q294.3,1392.0 299.2,1386.1 Q304.0,1380.2 305.9,1378.1 Q307.8,1376.0 313.9,1369.7 Q320.0,1363.3 321.8,1361.7 Q323.6,1360.0 329.8,1354.5 Q336.0,1349.0 339.3,1346.5 Q342.6,1344.0 347.3,1340.6 Q352.0,1337.2 359.5,1332.6 Q367.1,1328.0 367.5,1327.7 Q368.0,1327.5 376.0,1323.5 Q384.0,1319.5 392.0,1316.4 Q400.0,1313.2 402.0,1312.6 Q404.0,1312.0 410.0,1310.2 Q416.0,1308.4 424.0,1306.7 Q432.0,1304.9 440.0,1303.8 Q448.0,1302.6 456.0,1302.0 Q464.0,1301.4 472.0,1301.3 Q480.0,1301.2 488.0,1301.6 Q496.0,1302.0 504.0,1302.9 Q512.0,1303.8 520.0,1305.2 Q528.0,1306.6 536.0,1308.6 Q544.0,1310.5 546.4,1311.3 Q548.7,1312.0 554.4,1313.8 Q560.0,1315.7 568.0,1319.0 Q576.0,1322.2 581.7,1325.1 Q587.5,1328.0 589.7,1329.2 Q592.0,1330.4 600.0,1335.6 Q608.0,1340.8 610.1,1342.4 Q612.2,1344.0 618.1,1349.1 Q624.0,1354.1 627.0,1357.1 Q629.9,1360.0 635.0,1365.8 Q640.0,1371.7 641.6,1373.8 Q643.3,1376.0 648.3,1384.0 Q653.4,1392.0 654.7,1394.5 Q656.0,1397.1 658.5,1402.5 Q661.0,1408.0 663.9,1416.0 Q666.7,1424.0 668.7,1432.0 Q670.8,1440.0 671.4,1443.6 Q672.0,1447.2 672.7,1451.6 Q673.4,1456.0 674.0,1464.0 Q674.7,1472.0 674.8,1480.0 Q674.8,1488.0 674.4,1496.0 Q674.0,1504.0 673.0,1512.0 Q672.1,1520.0 672.0,1520.3 Q672.0,1520.5 670.6,1528.3 Q669.2,1536.0 667.3,1544.0 Q665.4,1552.0 663.0,1560.0 Q660.6,1568.0 658.3,1574.6 Q656.0,1581.2 655.5,1582.6 Q655.0,1584.0 651.7,1592.0 L648.3,1600.0"/><path d="M448.2,0.0 Q448.0,0.8 446.0,8.4 Q444.0,16.0 441.5,24.0 Q439.1,32.0 436.4,40.0 Q433.7,48.0 432.9,50.3 Q432.0,52.6 429.8,58.3 Q427.6,64.0 424.2,72.0 Q420.8,80.0 418.4,85.2 Q416.0,90.4 414.6,93.2 Q413.3,96.0 409.1,104.0 Q405.0,112.0 402.5,116.4 Q400.0,120.9 397.9,124.4 Q395.8,128.0 390.8,136.0 Q385.8,144.0 384.9,145.3 Q384.0,146.7 379.3,153.3 Q374.6,160.0 371.3,164.4 Q368.0,168.8 365.2,172.4 Q362.3,176.0 357.2,182.2 Q352.0,188.3 350.3,190.2 Q348.7,192.0 342.3,198.7 Q336.0,205.5 334.7,206.7 Q333.4,208.0 326.7,214.3 Q320.0,220.7 318.1,222.3 Q316.2,224.0 310.1,229.1 Q304.0,234.1 300.1,237.1 Q296.3,240.0 292.1,243.0 Q288.0,246.1 280.4,251.0 Q272.9,256.0 272.4,256.3 Q272.0,256.5 264.0,261.1 Q256.0,265.6 249.6,268.8 Q243.1,272.0 241.6,272.8 Q240.0,273.5 232.0,276.8 Q224.0,280.1 216.0,282.8 Q208.0,285.5 203.3,286.8 Q198.5,288.0 195.3,288.8 Q192.0,289.7 184.0,291.2 Q176.0,292.6 168.0,293.5 Q160.0,294.3 152.0,294.5 Q144.0,294.7 136.0,294.1 Q128.0,293.6 120.0,292.3 Q112.0,290.9 106.8,289.5 Q101.5,288.0 98.8,287.1 Q96.0,286.3 88.0,282.7 Q80.0,279.2 74.1,275.6 Q68.3,272.0 66.1,270.5 Q64.0,269.0 57.0,262.5 Q50.0,256.0 49.0,254.8 Q48.0,253.7 43.1,246.8 Q38.3,240.0 35.1,234.1 Q32.0,228.1 31.1,226.1 Q30.2,224.0 27.6,216.0 Q25.0,208.0 23.5,200.0 Q21.9,192.0 21.2,184.0 Q20.5,176.0 20.5,168.0 Q20.6,160.0 21.3,152.0 Q22.1,144.0 23.4,136.0 Q24.7,128.0 26.5,120.0 Q28.4,112.0 30.2,105.9 Q32.0,99.8 32.6,97.9 Q33.2,96.0 36.1,88.0 Q39.1,80.0 42.5,72.0 Q45.9,64.0 46.9,61.8 Q48.0,59.5 50.9,53.8 Q53.7,48.0 58.1,40.0 Q62.5,32.0 63.2,30.7 Q64.0,29.4 68.2,22.7 Q72.3,16.0 76.2,10.3 Q80.0,4.5 81.6,2.3 L83.1,0.0"/><path d="M231.8,1600.0 Q236.6,1584.0 238.3,1578.8 Q240.0,1573.5 240.9,1570.8 Q241.9,1568.0 244.9,1560.0 Q247.8,1552.0 251.0,1544.0 Q254.2,1536.0 255.1,1533.9 Q256.0,1531.9 258.7,1525.9 Q261.3,1520.0 265.2,1512.0 Q269.0,1504.0 270.5,1501.1 Q272.0,1498.2 274.8,1493.1 Q277.5,1488.0 282.2,1480.0 Q286.8,1472.0 287.4,1471.0 Q288.0,1470.0 292.6,1463.0 Q297.2,1456.0 300.6,1451.1 Q304.0,1446.2 306.3,1443.1 Q308.6,1440.0 314.3,1432.9 Q320.0,1425.8 320.8,1424.9 Q321.6,1424.0 328.8,1416.2 Q336.0,1408.4 336.2,1408.2 Q336.4,1408.0 344.2,1400.8 Q352.0,1393.7 353.0,1392.8 Q354.1,1392.0 361.0,1386.6 Q368.0,1381.3 372.0,1378.6 Q376.0,1376.0 380.0,1373.5 Q384.0,1370.9 392.0,1366.7 Q400.0,1362.5 402.8,1361.2 Q405.6,1360.0 410.8,1357.8 Q416.0,1355.7 424.0,1353.1 Q432.0,1350.5 440.0,1348.6 Q448.0,1346.7 456.0,1345.4 Q464.0,1344.2 465.5,1344.1 Q466.9,1344.0 473.5,1343.6 Q480.0,1343.1 488.0,1343.2 Q496.0,1343.3 499.8,1343.7 Q503.5,1344.0 507.8,1344.4 Q512.0,1344.8 520.0,1346.3 Q528.0,1347.8 536.0,1350.1 Q544.0,1352.3 552.0,1355.4 Q560.0,1358.6 561.4,1359.3 Q562.9,1360.0 569.4,1363.6 Q576.0,1367.2 582.4,1371.6 Q588.7,1376.0 590.4,1377.3 Q592.0,1378.6 599.0,1385.3 Q605.9,1392.0 607.0,1393.2 Q608.0,1394.4 613.0,1401.2 Q618.0,1408.0 621.0,1413.1 Q624.0,1418.2 625.5,1421.1 Q626.9,1424.0 630.1,1432.0 Q633.2,1440.0 635.4,1448.0 Q637.5,1456.0 638.8,1463.4 Q640.0,1470.9 640.1,1471.4 Q640.2,1472.0 640.7,1480.0 Q641.2,1488.0 641.1,1496.0 Q641.0,1504.0 640.5,1509.4 Q640.0,1514.8 639.8,1517.4 Q639.5,1520.0 638.2,1528.0 Q636.8,1536.0 635.0,1544.0 Q633.1,1552.0 630.7,1560.0 Q628.3,1568.0 626.1,1574.0 Q624.0,1579.9 623.2,1582.0 Q622.5,1584.0 619.0,1592.0 L615.5,1600.0"/><path d="M409.2,0.0 Q405.2,16.0 402.8,24.0 Q400.4,32.0 400.2,32.6 Q400.0,33.2 397.2,40.6 Q394.5,48.0 391.2,56.0 Q387.9,64.0 385.9,68.2 Q384.0,72.3 382.1,76.2 Q380.3,80.0 376.0,88.0 Q371.7,96.0 369.9,99.2 Q368.0,102.4 365.0,107.2 Q362.0,112.0 357.0,119.5 Q352.0,127.1 351.7,127.5 Q351.4,128.0 345.3,136.0 Q339.2,144.0 337.6,146.0 Q336.0,147.9 330.7,154.0 Q325.4,160.0 322.7,162.9 Q320.0,165.9 314.9,170.9 Q309.9,176.0 306.9,178.8 Q304.0,181.5 297.9,186.8 Q291.9,192.0 289.9,193.6 Q288.0,195.2 280.0,201.1 Q272.0,207.1 271.3,207.5 Q270.6,208.0 263.3,212.6 Q256.0,217.2 249.7,220.6 Q243.5,224.0 241.7,224.9 Q240.0,225.8 232.0,229.4 Q224.0,232.9 216.0,235.8 Q208.0,238.6 205.4,239.3 Q202.7,240.0 197.4,241.4 Q192.0,242.7 184.0,244.0 Q176.0,245.3 168.0,245.8 Q160.0,246.2 152.0,245.8 Q144.0,245.3 136.0,243.8 Q128.0,242.2 124.7,241.1 Q121.4,240.0 116.7,238.1 Q112.0,236.2 104.0,231.3 Q96.0,226.4 94.6,225.2 Q93.2,224.0 86.6,216.8 Q80.0,209.6 79.5,208.8 Q78.9,208.0 74.8,200.0 Q70.6,192.0 68.0,184.0 Q65.5,176.0 64.7,171.6 Q64.0,167.2 63.5,163.6 Q63.0,160.0 62.8,152.0 Q62.7,144.0 63.3,136.0 Q63.9,128.0 64.0,127.8 Q64.0,127.7 65.4,119.8 Q66.9,112.0 69.0,104.0 Q71.2,96.0 73.9,88.0 Q76.6,80.0 78.3,75.9 Q80.0,71.7 81.7,67.9 Q83.3,64.0 87.3,56.0 Q91.2,48.0 93.6,43.7 Q96.0,39.4 98.2,35.7 Q100.3,32.0 105.4,24.0 Q110.5,16.0 111.3,14.9 Q112.0,13.9 117.1,6.9 L122.1,0.0"/><path d="M268.4,1600.0 Q272.0,1588.8 272.8,1586.4 Q273.6,1584.0 276.6,1576.0 Q279.6,1568.0 282.9,1560.0 Q286.2,1552.0 287.1,1550.0 Q288.0,1548.0 290.9,1542.0 Q293.8,1536.0 297.9,1528.0 Q302.1,1520.0 303.0,1518.3 Q304.0,1516.6 307.8,1510.3 Q311.6,1504.0 315.8,1497.5 Q320.0,1490.9 321.0,1489.5 Q322.0,1488.0 328.0,1480.0 Q334.0,1472.0 335.0,1470.7 Q336.0,1469.5 341.9,1462.7 Q347.8,1456.0 349.9,1453.7 Q352.0,1451.5 358.0,1445.7 Q363.9,1440.0 366.0,1438.2 Q368.0,1436.3 375.7,1430.2 Q383.4,1424.0 383.7,1423.8 Q384.0,1423.6 392.0,1418.4 Q400.0,1413.2 404.8,1410.6 Q409.6,1408.0 412.8,1406.3 Q416.0,1404.7 424.0,1401.4 Q432.0,1398.1 440.0,1395.7 Q448.0,1393.2 451.0,1392.6 Q454.0,1392.0 459.0,1391.0 Q464.0,1390.1 472.0,1389.3 Q480.0,1388.6 488.0,1388.7 Q496.0,1388.9 504.0,1389.9 Q512.0,1390.9 514.2,1391.5 Q516.4,1392.0 522.2,1393.6 Q528.0,1395.1 536.0,1398.5 Q544.0,1401.9 549.2,1404.9 Q554.4,1408.0 557.2,1409.9 Q560.0,1411.8 566.7,1417.9 Q573.5,1424.0 574.7,1425.4 Q576.0,1426.8 580.7,1433.4 Q585.5,1440.0 588.7,1446.1 Q592.0,1452.2 592.8,1454.1 Q593.7,1456.0 596.2,1464.0 Q598.8,1472.0 600.2,1480.0 Q601.7,1488.0 602.3,1496.0 Q602.8,1504.0 602.5,1512.0 Q602.3,1520.0 601.2,1528.0 Q600.2,1536.0 598.6,1544.0 Q596.9,1552.0 594.6,1560.0 Q592.3,1568.0 592.2,1568.4 Q592.0,1568.9 589.1,1576.4 Q586.2,1584.0 582.7,1592.0 L579.1,1600.0"/><path d="M359.3,0.0 Q356.4,16.0 354.3,24.0 Q352.1,32.0 352.1,32.2 Q352.0,32.3 349.0,40.2 Q346.0,48.0 342.4,56.0 Q338.9,64.0 337.4,66.8 Q336.0,69.5 333.0,74.8 Q330.1,80.0 325.1,88.0 Q320.1,96.0 320.1,96.1 Q320.0,96.2 314.0,104.1 Q307.9,112.0 306.0,114.4 Q304.0,116.8 298.9,122.4 Q293.8,128.0 290.9,130.9 Q288.0,133.9 282.4,138.9 Q276.9,144.0 274.4,146.1 Q272.0,148.2 264.1,154.1 Q256.1,160.0 256.1,160.0 Q256.0,160.1 248.0,164.8 Q240.0,169.4 233.2,172.7 Q226.3,176.0 225.2,176.5 Q224.0,177.1 216.0,179.7 Q208.0,182.3 200.0,183.8 Q192.0,185.4 184.0,185.7 Q176.0,186.1 168.0,184.8 Q160.0,183.6 152.0,180.3 Q144.0,177.0 143.3,176.5 Q142.6,176.0 135.3,168.9 Q128.0,161.7 127.4,160.9 Q126.8,160.0 123.4,152.0 Q120.0,144.0 118.5,136.0 Q117.1,128.0 117.2,120.0 Q117.2,112.0 118.5,104.0 Q119.7,96.0 121.9,88.0 Q124.1,80.0 126.0,74.8 Q128.0,69.6 129.1,66.8 Q130.2,64.0 134.2,56.0 Q138.2,48.0 141.1,43.0 Q144.0,38.0 145.9,35.0 Q147.7,32.0 153.3,24.0 Q158.8,16.0 159.4,15.2 Q160.0,14.5 166.0,7.2 L172.0,0.0"/><path d="M313.2,1600.0 Q318.4,1584.0 319.2,1582.0 Q320.0,1580.0 322.6,1574.0 Q325.1,1568.0 329.0,1560.0 Q332.8,1552.0 334.4,1549.1 Q336.0,1546.1 339.0,1541.1 Q342.0,1536.0 347.0,1528.3 Q352.0,1520.6 352.2,1520.3 Q352.5,1520.0 358.8,1512.0 Q365.1,1504.0 366.6,1502.3 Q368.0,1500.7 374.1,1494.3 Q380.3,1488.0 382.1,1486.2 Q384.0,1484.5 391.5,1478.2 Q399.1,1472.0 399.5,1471.6 Q400.0,1471.3 408.0,1466.2 Q416.0,1461.0 421.0,1458.5 Q425.9,1456.0 429.0,1454.5 Q432.0,1453.1 440.0,1450.4 Q448.0,1447.6 456.0,1446.0 Q464.0,1444.4 472.0,1444.0 Q480.0,1443.5 488.0,1444.5 Q496.0,1445.5 504.0,1448.2 Q512.0,1450.8 516.7,1453.4 Q521.3,1456.0 524.7,1458.4 Q528.0,1460.8 533.3,1466.4 Q538.7,1472.0 541.3,1476.0 Q544.0,1480.0 546.0,1484.0 Q548.0,1488.0 550.5,1496.0 Q552.9,1504.0 553.9,1512.0 Q555.0,1520.0 554.8,1528.0 Q554.6,1536.0 553.4,1544.0 Q552.2,1552.0 550.1,1560.0 Q548.1,1568.0 546.0,1573.8 Q544.0,1579.5 543.1,1581.8 Q542.3,1584.0 538.4,1592.0 L534.6,1600.0"/><path d="M390.3,1600.0 Q394.5,1584.0 397.2,1578.1 Q400.0,1572.3 401.3,1570.1 Q402.7,1568.0 409.3,1560.0 Q416.0,1552.0 416.0,1552.0 Q416.0,1552.0 424.0,1546.9 Q432.0,1541.8 440.0,1539.4 Q448.0,1537.1 456.0,1540.0 Q464.0,1543.0 466.9,1547.5 Q469.9,1552.0 470.6,1560.0 Q471.3,1568.0 469.3,1576.0 Q467.2,1584.0 465.6,1587.2 Q464.0,1590.3 460.9,1595.2 L457.7,1600.0"/></g></svg>